<svg width="2002" height="293" viewBox="0 0 2002 293" fill="none" xmlns="http://www.w3.org/2000/svg">
<path d="M671.192 272.107C648.547 272.107 629.837 267.323 615.063 257.757C600.411 248.19 591.328 234.869 587.816 217.794L609.251 214.161C612.278 225.787 619.423 235.051 630.685 241.953C641.947 248.856 655.752 252.307 672.1 252.307C688.328 252.307 701.224 248.856 710.791 241.953C720.358 235.051 725.141 225.605 725.141 213.616C725.141 207.077 723.628 201.749 720.6 197.632C717.694 193.393 711.881 189.518 703.162 186.006C694.443 182.494 681.486 178.377 664.29 173.654C646.125 168.81 631.896 163.966 621.603 159.122C611.43 154.279 604.225 148.769 599.987 142.593C595.869 136.417 593.811 128.848 593.811 119.887C593.811 109.109 596.899 99.6635 603.075 91.5499C609.251 83.3153 617.849 76.8971 628.869 72.2954C640.01 67.6937 652.846 65.3928 667.378 65.3928C681.909 65.3928 694.988 67.8148 706.613 72.6587C718.239 77.3815 727.624 84.0419 734.769 92.6398C741.913 101.117 746.031 110.986 747.121 122.248L725.686 126.244C723.628 113.65 717.27 103.72 706.613 96.4544C695.957 89.0674 682.636 85.3134 666.651 85.1923C651.514 84.9501 639.162 87.9775 629.595 94.2746C620.028 100.451 615.245 108.625 615.245 118.797C615.245 124.61 616.88 129.575 620.15 133.692C623.54 137.688 629.474 141.382 637.951 144.772C646.428 148.163 658.416 151.796 673.917 155.671C692.808 160.515 707.522 165.48 718.057 170.566C728.714 175.652 736.222 181.647 740.581 188.549C744.941 195.331 747.121 203.747 747.121 213.798C747.121 231.963 740.339 246.252 726.776 256.667C713.334 266.96 694.806 272.107 671.192 272.107Z" fill="#041324"/>
<path d="M867.564 272.47C847.946 272.47 831.416 268.11 817.974 259.391C804.532 250.551 794.3 238.381 787.276 222.88C780.373 207.259 776.801 189.276 776.559 168.931C776.801 148.224 780.434 130.12 787.457 114.619C794.602 98.9974 804.896 86.8876 818.337 78.2897C831.779 69.6918 848.249 65.3928 867.745 65.3928C886.758 65.3928 903.469 69.9945 917.88 79.1979C932.412 88.2803 942.463 100.814 948.033 116.799L927.689 124.246C922.724 112.015 914.913 102.57 904.256 95.9094C893.6 89.128 881.369 85.7372 867.564 85.7372C852.063 85.7372 839.287 89.3096 829.236 96.4544C819.185 103.478 811.677 113.226 806.712 125.699C801.747 138.173 799.143 152.583 798.901 168.931C799.265 193.999 805.138 214.161 816.521 229.42C828.025 244.557 845.039 252.126 867.564 252.126C881.49 252.126 893.539 248.916 903.711 242.498C914.005 236.08 921.876 226.756 927.325 214.525L948.033 221.609C940.404 238.199 929.747 250.854 916.063 259.573C902.379 268.171 886.213 272.47 867.564 272.47Z" fill="#041324"/>
<path d="M1042.1 272.47C1026.96 272.47 1014.37 269.806 1004.32 264.478C994.385 259.149 986.938 252.126 981.973 243.407C977.008 234.566 974.525 225 974.525 214.706C974.525 203.565 976.826 194.241 981.428 186.733C986.151 179.225 992.387 173.17 1000.14 168.568C1008.01 163.966 1016.67 160.515 1026.11 158.214C1036.89 155.792 1048.52 153.734 1060.99 152.038C1073.46 150.222 1085.33 148.648 1096.59 147.315C1107.97 145.983 1117.24 144.833 1124.38 143.864L1116.75 148.405C1117.24 127.213 1113.24 111.47 1104.77 101.177C1096.41 90.7628 1081.64 85.5556 1060.44 85.5556C1045.55 85.5556 1033.26 88.9463 1023.57 95.7278C1014 102.388 1007.28 112.742 1003.41 126.789L981.973 120.795C986.453 102.994 995.475 89.3096 1009.04 79.7429C1022.6 70.1762 1039.98 65.3928 1061.17 65.3928C1079.21 65.3928 1094.35 68.9046 1106.58 75.9283C1118.93 82.952 1127.53 92.8214 1132.38 105.537C1134.43 110.744 1135.83 116.859 1136.55 123.883C1137.28 130.786 1137.64 137.749 1137.64 144.772V267.021H1118.57V215.433L1125.66 217.249C1119.72 234.93 1109.37 248.553 1094.59 258.12C1079.82 267.687 1062.32 272.47 1042.1 272.47ZM1043.19 253.215C1056.51 253.215 1068.19 250.854 1078.25 246.131C1088.3 241.287 1096.41 234.566 1102.59 225.968C1108.88 217.249 1112.88 207.017 1114.57 195.27C1115.79 188.731 1116.45 181.647 1116.57 174.018C1116.69 166.388 1116.75 160.757 1116.75 157.124L1125.84 162.937C1117.97 163.906 1108.52 164.935 1097.5 166.025C1086.6 167.115 1075.46 168.447 1064.08 170.021C1052.69 171.596 1042.4 173.594 1033.2 176.016C1027.51 177.59 1021.75 179.891 1015.94 182.918C1010.25 185.825 1005.47 189.881 1001.59 195.089C997.836 200.296 995.959 206.896 995.959 214.888C995.959 220.822 997.413 226.756 1000.32 232.689C1003.35 238.623 1008.31 243.528 1015.21 247.403C1022.12 251.278 1031.44 253.215 1043.19 253.215Z" fill="#041324"/>
<path d="M1188.44 267.021V0H1209.33V267.021H1188.44Z" fill="#041324"/>
<path d="M1344.76 272.47C1325.99 272.47 1309.76 268.292 1296.08 259.936C1282.39 251.46 1271.8 239.531 1264.29 224.152C1256.78 208.651 1253.03 190.366 1253.03 169.295C1253.03 147.86 1256.72 129.393 1264.11 113.892C1271.61 98.2708 1282.15 86.2822 1295.71 77.9264C1309.4 69.5707 1325.62 65.3928 1344.39 65.3928C1363.41 65.3928 1379.63 69.7523 1393.08 78.4714C1406.64 87.0693 1416.93 99.5424 1423.96 115.891C1431.1 132.239 1434.49 151.917 1434.13 174.926H1412.33V167.66C1411.73 140.776 1405.67 120.311 1394.17 106.263C1382.66 92.2159 1366.19 85.1923 1344.76 85.1923C1322.6 85.1923 1305.46 92.5187 1293.35 107.172C1281.36 121.703 1275.37 142.29 1275.37 168.931C1275.37 195.331 1281.36 215.796 1293.35 230.328C1305.46 244.86 1322.48 252.126 1344.39 252.126C1359.53 252.126 1372.73 248.614 1383.99 241.59C1395.38 234.445 1404.4 224.273 1411.06 211.073L1429.95 219.429C1422.08 236.383 1410.7 249.461 1395.8 258.665C1380.91 267.868 1363.89 272.47 1344.76 272.47ZM1267.38 174.926V156.034H1422.32V174.926H1267.38Z" fill="#041324"/>
<path d="M1554.78 272.47C1535.28 272.47 1518.75 268.05 1505.19 259.21C1491.63 250.37 1481.27 238.139 1474.13 222.517C1466.98 206.896 1463.41 188.913 1463.41 168.568C1463.41 148.103 1467.04 130.12 1474.31 114.619C1481.57 98.9974 1491.99 86.8876 1505.55 78.2897C1519.24 69.6918 1535.65 65.3928 1554.78 65.3928C1574.28 65.3928 1590.81 69.8129 1604.37 78.653C1618.05 87.372 1628.41 99.4818 1635.43 114.982C1642.57 130.483 1646.15 148.345 1646.15 168.568C1646.15 189.276 1642.57 207.441 1635.43 223.062C1628.28 238.563 1617.87 250.672 1604.19 259.391C1590.5 268.11 1574.03 272.47 1554.78 272.47ZM1554.78 252.126C1577.91 252.126 1595.16 244.375 1606.55 228.875C1618.05 213.374 1623.8 193.272 1623.8 168.568C1623.8 143.38 1618.05 123.278 1606.55 108.261C1595.04 93.2453 1577.79 85.7372 1554.78 85.7372C1539.16 85.7372 1526.26 89.3096 1516.09 96.4544C1505.92 103.478 1498.29 113.226 1493.2 125.699C1488.24 138.051 1485.75 152.341 1485.75 168.568C1485.75 193.756 1491.57 213.98 1503.19 229.238C1514.94 244.496 1532.13 252.126 1554.78 252.126Z" fill="#041324"/>
<path d="M1761.5 271.562C1750.72 271.562 1741.03 269.987 1732.43 266.839C1723.96 263.69 1716.57 259.27 1710.27 253.579C1703.97 247.766 1698.77 240.985 1694.65 233.234C1690.53 225.363 1687.44 216.765 1685.39 207.44C1683.45 198.116 1682.48 188.368 1682.48 178.195V70.8422H1703.55V172.928C1703.55 185.28 1704.76 196.299 1707.18 205.987C1709.73 215.675 1713.48 223.91 1718.45 230.691C1723.53 237.473 1729.83 242.619 1737.34 246.131C1744.97 249.643 1753.93 251.399 1764.22 251.399C1774.88 251.399 1784.08 249.583 1791.83 245.95C1799.7 242.196 1806.12 236.988 1811.08 230.328C1816.17 223.668 1819.93 215.796 1822.35 206.714C1824.89 197.51 1826.16 187.52 1826.16 176.742L1842.69 178.74C1842.69 199.932 1839.06 217.431 1831.79 231.236C1824.65 244.92 1814.96 255.092 1802.73 261.753C1790.5 268.292 1776.75 271.562 1761.5 271.562ZM1828.16 267.021V222.88H1826.16V70.8422H1847.23V267.021H1828.16Z" fill="#041324"/>
<path d="M2002 267.021C1991.58 269.321 1981.29 270.169 1971.12 269.564C1960.95 269.079 1951.86 266.839 1943.87 262.843C1936 258.725 1930.07 252.428 1926.07 243.951C1922.8 237.049 1920.98 230.086 1920.62 223.062C1920.26 216.038 1920.08 207.985 1920.08 198.903V16.3482H1941.15V198.54C1941.15 206.774 1941.21 213.616 1941.33 219.066C1941.57 224.394 1942.84 229.299 1945.14 233.779C1949.5 242.135 1956.41 247.221 1965.85 249.038C1975.3 250.733 1987.35 250.43 2002 248.129V267.021ZM1876.12 89.9151V70.8422H2002V89.9151H1876.12Z" fill="#041324"/>
<mask id="path-2-outside-1_512_173" maskUnits="userSpaceOnUse" x="0" y="29.2969" width="498" height="264" fill="black">
<rect fill="white" y="29.2969" width="498" height="264"/>
<path d="M365.44 251.399C341.232 251.399 318.298 241.843 301.416 224.962L312.565 213.813C326.58 227.828 345.373 235.791 365.44 235.791C385.507 235.791 404.301 228.147 418.316 213.813C432.331 199.798 440.294 181.005 440.294 160.937C440.294 140.87 432.65 122.077 418.316 108.062C404.301 94.0467 385.507 86.0835 365.44 86.0835C345.373 86.0835 326.58 93.7281 312.565 108.062L195.665 224.962C178.465 242.162 155.849 251.399 131.641 251.399C107.433 251.399 84.4991 241.843 67.6171 224.962C50.4166 207.761 41.1793 185.146 41.1793 160.937C41.1793 136.729 50.7352 113.795 67.6171 96.9134C84.8176 79.7129 107.433 70.4757 131.641 70.4757C155.849 70.4757 178.783 80.0314 195.665 96.9134L184.517 108.062C170.501 94.0467 151.708 86.0835 131.641 86.0835C111.574 86.0835 92.7808 93.7281 78.7656 108.062C64.7504 122.077 56.7872 140.87 56.7872 160.937C56.7872 181.005 64.4318 199.798 78.7656 213.813C92.7808 227.828 111.574 235.791 131.641 235.791C151.708 235.791 170.501 228.147 184.517 213.813L301.416 96.9134C318.617 79.7129 341.232 70.4757 365.44 70.4757C389.648 70.4757 412.582 80.0314 429.464 96.9134C446.665 114.114 455.902 136.729 455.902 160.937C455.902 185.146 446.346 208.08 429.464 224.962C412.582 241.843 389.648 251.399 365.44 251.399Z"/>
<path d="M365.44 290.578C332.313 290.578 298.868 277.837 273.704 252.674L284.853 241.525C329.446 286.119 401.752 286.119 446.028 241.525C490.622 196.931 490.622 124.625 446.028 80.3501C424.368 58.6903 396.019 46.9047 365.44 46.9047C334.861 46.9047 306.513 58.6903 284.853 80.3501L167.953 197.25C158.397 206.805 145.338 212.221 131.641 212.221C117.944 212.221 104.885 206.805 95.3288 197.25C85.7729 187.694 80.358 174.634 80.358 160.938C80.358 147.241 85.7729 134.181 95.3288 124.625C104.885 115.07 117.944 109.655 131.641 109.655C145.338 109.655 158.397 115.07 167.953 124.625L156.805 135.774C150.116 129.085 141.197 125.263 131.641 125.263C122.085 125.263 113.166 129.085 106.477 135.774C99.7881 142.463 95.9659 151.382 95.9659 160.938C95.9659 170.493 99.7881 179.412 106.477 186.101C113.166 192.79 122.085 196.613 131.641 196.613C141.197 196.613 150.116 192.79 156.805 186.101L273.704 69.2017C298.231 44.675 330.721 31.2969 365.44 31.2969C400.16 31.2969 432.65 44.675 457.176 69.2017C481.703 93.7283 495.081 126.218 495.081 160.938C495.081 195.657 481.703 228.147 457.176 252.674C432.012 277.837 398.885 290.578 365.44 290.578Z"/>
<path d="M131.641 290.578C96.9212 290.578 64.4314 277.2 39.9048 252.674C15.3781 228.147 2 195.657 2 160.938C2 126.218 15.3781 93.7282 39.9048 69.2016C64.4314 44.675 96.9212 31.2969 131.641 31.2969C166.36 31.2969 198.85 44.675 223.377 69.2016L212.228 80.3501C167.634 35.7562 95.3285 35.7562 51.0532 80.3501C6.45936 124.944 6.45936 197.25 51.0532 241.525C72.7131 263.185 101.062 274.97 131.641 274.97C162.219 274.97 190.568 263.185 212.228 241.525L329.128 124.625C338.684 115.07 351.743 109.655 365.44 109.655C379.136 109.655 392.196 115.07 401.752 124.625C411.308 134.181 416.723 147.241 416.723 160.938C416.723 174.634 411.308 187.694 401.752 197.25C392.196 206.805 379.136 212.22 365.44 212.22C351.743 212.22 338.684 206.805 329.128 197.25L340.276 186.101C346.965 192.79 355.884 196.613 365.44 196.613C374.996 196.613 383.914 192.79 390.604 186.101C397.293 179.412 401.115 170.493 401.115 160.938C401.115 151.382 397.293 142.463 390.604 135.774C383.914 129.085 374.996 125.262 365.44 125.262C355.884 125.262 346.965 129.085 340.276 135.774L223.377 252.674C198.85 277.2 166.36 290.578 131.641 290.578Z"/>
</mask>
<path d="M365.44 251.399C341.232 251.399 318.298 241.843 301.416 224.962L312.565 213.813C326.58 227.828 345.373 235.791 365.44 235.791C385.507 235.791 404.301 228.147 418.316 213.813C432.331 199.798 440.294 181.005 440.294 160.937C440.294 140.87 432.65 122.077 418.316 108.062C404.301 94.0467 385.507 86.0835 365.44 86.0835C345.373 86.0835 326.58 93.7281 312.565 108.062L195.665 224.962C178.465 242.162 155.849 251.399 131.641 251.399C107.433 251.399 84.4991 241.843 67.6171 224.962C50.4166 207.761 41.1793 185.146 41.1793 160.937C41.1793 136.729 50.7352 113.795 67.6171 96.9134C84.8176 79.7129 107.433 70.4757 131.641 70.4757C155.849 70.4757 178.783 80.0314 195.665 96.9134L184.517 108.062C170.501 94.0467 151.708 86.0835 131.641 86.0835C111.574 86.0835 92.7808 93.7281 78.7656 108.062C64.7504 122.077 56.7872 140.87 56.7872 160.937C56.7872 181.005 64.4318 199.798 78.7656 213.813C92.7808 227.828 111.574 235.791 131.641 235.791C151.708 235.791 170.501 228.147 184.517 213.813L301.416 96.9134C318.617 79.7129 341.232 70.4757 365.44 70.4757C389.648 70.4757 412.582 80.0314 429.464 96.9134C446.665 114.114 455.902 136.729 455.902 160.937C455.902 185.146 446.346 208.08 429.464 224.962C412.582 241.843 389.648 251.399 365.44 251.399Z" fill="#041324"/>
<path d="M365.44 290.578C332.313 290.578 298.868 277.837 273.704 252.674L284.853 241.525C329.446 286.119 401.752 286.119 446.028 241.525C490.622 196.931 490.622 124.625 446.028 80.3501C424.368 58.6903 396.019 46.9047 365.44 46.9047C334.861 46.9047 306.513 58.6903 284.853 80.3501L167.953 197.25C158.397 206.805 145.338 212.221 131.641 212.221C117.944 212.221 104.885 206.805 95.3288 197.25C85.7729 187.694 80.358 174.634 80.358 160.938C80.358 147.241 85.7729 134.181 95.3288 124.625C104.885 115.07 117.944 109.655 131.641 109.655C145.338 109.655 158.397 115.07 167.953 124.625L156.805 135.774C150.116 129.085 141.197 125.263 131.641 125.263C122.085 125.263 113.166 129.085 106.477 135.774C99.7881 142.463 95.9659 151.382 95.9659 160.938C95.9659 170.493 99.7881 179.412 106.477 186.101C113.166 192.79 122.085 196.613 131.641 196.613C141.197 196.613 150.116 192.79 156.805 186.101L273.704 69.2017C298.231 44.675 330.721 31.2969 365.44 31.2969C400.16 31.2969 432.65 44.675 457.176 69.2017C481.703 93.7283 495.081 126.218 495.081 160.938C495.081 195.657 481.703 228.147 457.176 252.674C432.012 277.837 398.885 290.578 365.44 290.578Z" fill="#041324"/>
<path d="M131.641 290.578C96.9212 290.578 64.4314 277.2 39.9048 252.674C15.3781 228.147 2 195.657 2 160.938C2 126.218 15.3781 93.7282 39.9048 69.2016C64.4314 44.675 96.9212 31.2969 131.641 31.2969C166.36 31.2969 198.85 44.675 223.377 69.2016L212.228 80.3501C167.634 35.7562 95.3285 35.7562 51.0532 80.3501C6.45936 124.944 6.45936 197.25 51.0532 241.525C72.7131 263.185 101.062 274.97 131.641 274.97C162.219 274.97 190.568 263.185 212.228 241.525L329.128 124.625C338.684 115.07 351.743 109.655 365.44 109.655C379.136 109.655 392.196 115.07 401.752 124.625C411.308 134.181 416.723 147.241 416.723 160.938C416.723 174.634 411.308 187.694 401.752 197.25C392.196 206.805 379.136 212.22 365.44 212.22C351.743 212.22 338.684 206.805 329.128 197.25L340.276 186.101C346.965 192.79 355.884 196.613 365.44 196.613C374.996 196.613 383.914 192.79 390.604 186.101C397.293 179.412 401.115 170.493 401.115 160.938C401.115 151.382 397.293 142.463 390.604 135.774C383.914 129.085 374.996 125.262 365.44 125.262C355.884 125.262 346.965 129.085 340.276 135.774L223.377 252.674C198.85 277.2 166.36 290.578 131.641 290.578Z" fill="#041324"/>
<path d="M301.416 224.962L300.002 223.547L298.588 224.962L300.002 226.376L301.416 224.962ZM312.565 213.813L313.979 212.399L312.565 210.985L311.151 212.399L312.565 213.813ZM418.316 213.813L416.902 212.399L416.894 212.407L416.886 212.415L418.316 213.813ZM418.316 108.062L416.902 109.476L416.91 109.484L416.918 109.492L418.316 108.062ZM312.565 108.062L313.979 109.476L313.987 109.468L313.995 109.46L312.565 108.062ZM195.665 224.962L197.079 226.376L197.079 226.376L195.665 224.962ZM195.665 96.9134L197.079 98.3276L198.494 96.9134L197.079 95.4992L195.665 96.9134ZM184.517 108.062L183.102 109.476L184.517 110.89L185.931 109.476L184.517 108.062ZM78.7656 108.062L80.1798 109.476L80.1877 109.468L80.1956 109.46L78.7656 108.062ZM78.7656 213.813L80.1798 212.399L80.1718 212.391L80.1638 212.383L78.7656 213.813ZM184.517 213.813L183.102 212.399L183.094 212.407L183.087 212.415L184.517 213.813ZM301.416 96.9134L300.002 95.4992L300.002 95.4992L301.416 96.9134ZM273.704 252.674L272.29 251.259L270.876 252.674L272.29 254.088L273.704 252.674ZM284.853 241.525L286.267 240.111L284.853 238.697L283.438 240.111L284.853 241.525ZM446.028 241.525L444.613 240.111L444.608 240.116L446.028 241.525ZM446.028 80.3501L444.613 81.7643L444.619 81.7694L446.028 80.3501ZM284.853 80.3501L283.438 78.9359L284.853 80.3501ZM167.953 197.25L166.539 195.835L166.539 195.835L167.953 197.25ZM167.953 124.625L169.367 126.04L170.782 124.625L169.367 123.211L167.953 124.625ZM156.805 135.774L155.39 137.188L156.805 138.602L158.219 137.188L156.805 135.774ZM156.805 186.101L158.219 187.515L158.219 187.515L156.805 186.101ZM273.704 69.2017L272.29 67.7874L272.29 67.7874L273.704 69.2017ZM457.176 252.674L458.59 254.088L457.176 252.674ZM223.377 69.2016L224.791 70.6158L226.205 69.2016L224.791 67.7874L223.377 69.2016ZM212.228 80.3501L210.814 81.7643L212.228 83.1785L213.642 81.7643L212.228 80.3501ZM51.0532 80.3501L52.4674 81.7643L52.4725 81.7592L51.0532 80.3501ZM51.0532 241.525L52.4674 240.111L52.4624 240.106L51.0532 241.525ZM212.228 241.525L213.642 242.939L213.642 242.939L212.228 241.525ZM329.128 124.625L327.714 123.211L327.714 123.211L329.128 124.625ZM329.128 197.25L327.714 195.835L326.299 197.25L327.714 198.664L329.128 197.25ZM340.276 186.101L341.69 184.687L340.276 183.273L338.862 184.687L340.276 186.101ZM340.276 135.774L338.862 134.36L338.862 134.36L340.276 135.774ZM223.377 252.674L224.791 254.088L224.791 254.088L223.377 252.674ZM365.44 249.399C341.762 249.399 319.337 240.054 302.83 223.547L300.002 226.376C317.26 243.633 340.702 253.399 365.44 253.399V249.399ZM302.83 226.376L313.979 215.227L311.151 212.399L300.002 223.547L302.83 226.376ZM311.151 215.227C325.535 229.611 344.834 237.791 365.44 237.791V233.791C345.912 233.791 327.625 226.045 313.979 212.399L311.151 215.227ZM365.44 237.791C386.027 237.791 405.342 229.943 419.746 215.211L416.886 212.415C403.26 226.351 384.988 233.791 365.44 233.791V237.791ZM419.73 215.227C434.114 200.843 442.294 181.544 442.294 160.937H438.294C438.294 180.466 430.548 198.752 416.902 212.399L419.73 215.227ZM442.294 160.937C442.294 140.351 434.446 121.036 419.714 106.632L416.918 109.492C430.854 123.118 438.294 141.39 438.294 160.937H442.294ZM419.73 106.648C405.346 92.2636 386.047 84.0835 365.44 84.0835V88.0835C384.968 88.0835 403.255 95.8297 416.902 109.476L419.73 106.648ZM365.44 84.0835C344.853 84.0835 325.539 91.932 311.135 106.664L313.995 109.46C327.621 95.5243 345.893 88.0835 365.44 88.0835V84.0835ZM311.151 106.648L194.251 223.547L197.079 226.376L313.979 109.476L311.151 106.648ZM194.251 223.547C177.43 240.368 155.325 249.399 131.641 249.399V253.399C156.374 253.399 179.5 243.956 197.079 226.376L194.251 223.547ZM131.641 249.399C107.963 249.399 85.5377 240.054 69.0313 223.547L66.2029 226.376C83.4605 243.633 106.903 253.399 131.641 253.399V249.399ZM69.0313 223.547C52.2102 206.726 43.1793 184.621 43.1793 160.937H39.1793C39.1793 185.67 48.6231 208.796 66.2029 226.376L69.0313 223.547ZM43.1793 160.937C43.1793 137.259 52.525 114.834 69.0313 98.3276L66.2029 95.4992C48.9454 112.757 39.1793 136.2 39.1793 160.937H43.1793ZM69.0313 98.3276C85.8525 81.5065 107.957 72.4757 131.641 72.4757V68.4757C106.909 68.4757 83.7827 77.9194 66.2029 95.4992L69.0313 98.3276ZM131.641 72.4757C155.32 72.4757 177.745 81.8212 194.251 98.3276L197.079 95.4992C179.822 78.2416 156.379 68.4757 131.641 68.4757V72.4757ZM194.251 95.4992L183.102 106.648L185.931 109.476L197.079 98.3276L194.251 95.4992ZM185.931 106.648C171.547 92.2636 152.248 84.0835 131.641 84.0835V88.0835C151.169 88.0835 169.456 95.8297 183.102 109.476L185.931 106.648ZM131.641 84.0835C111.054 84.0835 91.7398 91.932 77.3356 106.664L80.1956 109.46C93.8217 95.5243 112.094 88.0835 131.641 88.0835V84.0835ZM77.3514 106.648C62.9673 121.032 54.7872 140.331 54.7872 160.937H58.7872C58.7872 141.409 66.5334 123.122 80.1798 109.476L77.3514 106.648ZM54.7872 160.937C54.7872 181.524 62.6357 200.839 77.3673 215.243L80.1638 212.383C66.228 198.757 58.7872 180.485 58.7872 160.937H54.7872ZM77.3514 215.227C91.7354 229.611 111.035 237.791 131.641 237.791V233.791C112.113 233.791 93.8261 226.045 80.1798 212.399L77.3514 215.227ZM131.641 237.791C152.228 237.791 171.542 229.943 185.947 215.211L183.087 212.415C169.46 226.351 151.189 233.791 131.641 233.791V237.791ZM185.931 215.227L302.83 98.3276L300.002 95.4992L183.102 212.399L185.931 215.227ZM302.83 98.3276C319.652 81.5065 341.757 72.4757 365.44 72.4757V68.4757C340.708 68.4757 317.582 77.9194 300.002 95.4992L302.83 98.3276ZM365.44 72.4757C389.119 72.4757 411.544 81.8213 428.05 98.3276L430.879 95.4992C413.621 78.2416 390.178 68.4757 365.44 68.4757V72.4757ZM428.05 98.3276C444.871 115.149 453.902 137.254 453.902 160.937H457.902C457.902 136.205 448.458 113.079 430.879 95.4992L428.05 98.3276ZM453.902 160.937C453.902 184.616 444.557 207.041 428.05 223.547L430.879 226.376C448.136 209.118 457.902 185.675 457.902 160.937H453.902ZM428.05 223.547C411.544 240.054 389.119 249.399 365.44 249.399V253.399C390.178 253.399 413.621 243.633 430.879 226.376L428.05 223.547ZM365.44 288.578C332.82 288.578 299.89 276.031 275.118 251.259L272.29 254.088C297.845 279.643 331.807 292.578 365.44 292.578V288.578ZM275.118 254.088L286.267 242.939L283.438 240.111L272.29 251.259L275.118 254.088ZM283.438 242.939C328.811 288.311 402.387 288.319 447.447 242.934L444.608 240.116C401.118 283.919 330.082 283.926 286.267 240.111L283.438 242.939ZM447.442 242.939C492.814 197.567 492.821 123.991 447.437 78.9309L444.619 81.7694C488.422 125.26 488.429 196.295 444.613 240.111L447.442 242.939ZM447.442 78.9359C425.409 56.9027 396.552 44.9047 365.44 44.9047V48.9047C395.486 48.9047 423.327 60.4778 444.613 81.7643L447.442 78.9359ZM365.44 44.9047C334.329 44.9047 305.472 56.9027 283.438 78.9359L286.267 81.7643C307.553 60.4778 335.394 48.9047 365.44 48.9047V44.9047ZM283.438 78.9359L166.539 195.835L169.367 198.664L286.267 81.7643L283.438 78.9359ZM166.539 195.835C157.36 205.014 144.81 210.221 131.641 210.221V214.221C145.865 214.221 159.434 208.597 169.367 198.664L166.539 195.835ZM131.641 210.221C118.471 210.221 105.921 205.014 96.743 195.835L93.9146 198.664C103.848 208.597 117.417 214.221 131.641 214.221V210.221ZM96.743 195.835C87.5645 186.657 82.358 174.107 82.358 160.938H78.358C78.358 175.161 83.9814 188.731 93.9146 198.664L96.743 195.835ZM82.358 160.938C82.358 147.768 87.5645 135.218 96.743 126.04L93.9146 123.211C83.9814 133.144 78.358 146.714 78.358 160.938H82.358ZM96.743 126.04C105.921 116.861 118.471 111.655 131.641 111.655V107.655C117.417 107.655 103.848 113.278 93.9146 123.211L96.743 126.04ZM131.641 111.655C144.81 111.655 157.36 116.861 166.539 126.04L169.367 123.211C159.434 113.278 145.865 107.655 131.641 107.655V111.655ZM166.539 123.211L155.39 134.36L158.219 137.188L169.367 126.04L166.539 123.211ZM158.219 134.36C151.166 127.307 141.743 123.263 131.641 123.263V127.263C140.651 127.263 149.065 130.863 155.39 137.188L158.219 134.36ZM131.641 123.263C121.539 123.263 112.116 127.307 105.063 134.36L107.891 137.188C114.217 130.863 122.631 127.263 131.641 127.263V123.263ZM105.063 134.36C98.01 141.413 93.9659 150.836 93.9659 160.938H97.9659C97.9659 151.928 101.566 143.513 107.891 137.188L105.063 134.36ZM93.9659 160.938C93.9659 171.039 98.01 180.462 105.063 187.515L107.891 184.687C101.566 178.362 97.9659 169.947 97.9659 160.938H93.9659ZM105.063 187.515C112.116 194.568 121.539 198.613 131.641 198.613V194.613C122.631 194.613 114.217 191.012 107.891 184.687L105.063 187.515ZM131.641 198.613C141.743 198.613 151.166 194.568 158.219 187.515L155.39 184.687C149.065 191.012 140.651 194.613 131.641 194.613V198.613ZM158.219 187.515L275.118 70.6159L272.29 67.7874L155.39 184.687L158.219 187.515ZM275.118 70.6159C299.267 46.4668 331.248 33.2969 365.44 33.2969V29.2969C330.194 29.2969 297.194 42.8833 272.29 67.7874L275.118 70.6159ZM365.44 33.2969C399.633 33.2969 431.613 46.4668 455.762 70.6159L458.59 67.7874C433.686 42.8833 400.687 29.2969 365.44 29.2969V33.2969ZM455.762 70.6159C479.911 94.765 493.081 126.745 493.081 160.938H497.081C497.081 125.691 483.494 92.6916 458.59 67.7874L455.762 70.6159ZM493.081 160.938C493.081 195.13 479.911 227.11 455.762 251.259L458.59 254.088C483.494 229.184 497.081 196.184 497.081 160.938H493.081ZM455.762 251.259C430.988 276.033 398.376 288.578 365.44 288.578V292.578C399.394 292.578 433.037 279.641 458.59 254.088L455.762 251.259ZM131.641 288.578C97.4482 288.578 65.4681 275.408 41.319 251.259L38.4905 254.088C63.3947 278.992 96.3942 292.578 131.641 292.578V288.578ZM41.319 251.259C17.1698 227.11 4 195.13 4 160.938H0C0 196.184 13.5864 229.184 38.4905 254.088L41.319 251.259ZM4 160.938C4 126.745 17.1698 94.765 41.319 70.6158L38.4905 67.7874C13.5864 92.6915 0 125.691 0 160.938H4ZM41.319 70.6158C65.4681 46.4667 97.4482 33.2969 131.641 33.2969V29.2969C96.3942 29.2969 63.3947 42.8833 38.4905 67.7874L41.319 70.6158ZM131.641 33.2969C165.833 33.2969 197.813 46.4667 221.962 70.6158L224.791 67.7874C199.887 42.8833 166.887 29.2969 131.641 29.2969V33.2969ZM221.962 67.7874L210.814 78.9359L213.642 81.7643L224.791 70.6158L221.962 67.7874ZM213.642 78.9359C168.27 33.5638 94.6942 33.5565 49.6339 78.941L52.4725 81.7592C95.9628 37.956 166.998 37.9487 210.814 81.7643L213.642 78.9359ZM49.639 78.9359C4.26691 124.308 4.2596 197.884 49.6441 242.944L52.4624 240.106C8.65913 196.615 8.65181 125.58 52.4674 81.7643L49.639 78.9359ZM49.639 242.939C71.6722 264.972 100.529 276.97 131.641 276.97V272.97C101.595 272.97 73.754 261.397 52.4674 240.111L49.639 242.939ZM131.641 276.97C162.752 276.97 191.609 264.972 213.642 242.939L210.814 240.111C189.527 261.397 161.686 272.97 131.641 272.97V276.97ZM213.642 242.939L330.542 126.04L327.714 123.211L210.814 240.111L213.642 242.939ZM330.542 126.04C339.72 116.861 352.27 111.655 365.44 111.655V107.655C351.216 107.655 337.647 113.278 327.714 123.211L330.542 126.04ZM365.44 111.655C378.609 111.655 391.159 116.861 400.338 126.04L403.166 123.211C393.233 113.278 379.664 107.655 365.44 107.655V111.655ZM400.338 126.04C409.516 135.218 414.723 147.768 414.723 160.938H418.723C418.723 146.714 413.099 133.144 403.166 123.211L400.338 126.04ZM414.723 160.938C414.723 174.107 409.516 186.657 400.338 195.835L403.166 198.664C413.099 188.731 418.723 175.161 418.723 160.938H414.723ZM400.338 195.835C391.159 205.014 378.609 210.22 365.44 210.22V214.22C379.664 214.22 393.233 208.597 403.166 198.664L400.338 195.835ZM365.44 210.22C352.27 210.22 339.72 205.014 330.542 195.835L327.714 198.664C337.647 208.597 351.216 214.22 365.44 214.22V210.22ZM330.542 198.664L341.69 187.515L338.862 184.687L327.714 195.835L330.542 198.664ZM338.862 187.515C345.915 194.568 355.338 198.613 365.44 198.613V194.613C356.43 194.613 348.016 191.012 341.69 184.687L338.862 187.515ZM365.44 198.613C375.542 198.613 384.965 194.568 392.018 187.515L389.189 184.687C382.864 191.012 374.45 194.613 365.44 194.613V198.613ZM392.018 187.515C399.071 180.462 403.115 171.039 403.115 160.938H399.115C399.115 169.947 395.514 178.362 389.189 184.687L392.018 187.515ZM403.115 160.938C403.115 150.836 399.071 141.413 392.018 134.36L389.189 137.188C395.514 143.513 399.115 151.928 399.115 160.938H403.115ZM392.018 134.36C384.965 127.307 375.542 123.262 365.44 123.262V127.262C374.45 127.262 382.864 130.863 389.189 137.188L392.018 134.36ZM365.44 123.262C355.338 123.262 345.915 127.307 338.862 134.36L341.69 137.188C348.016 130.863 356.43 127.262 365.44 127.262V123.262ZM338.862 134.36L221.962 251.259L224.791 254.088L341.69 137.188L338.862 134.36ZM221.962 251.259C197.813 275.408 165.833 288.578 131.641 288.578V292.578C166.887 292.578 199.887 278.992 224.791 254.088L221.962 251.259Z" fill="#041324" mask="url(#path-2-outside-1_512_173)"/>
</svg>
