<svg xmlns="http://www.w3.org/2000/svg" width="1184" height="377" fill="none"><path fill="#fff" d="M0 0h1184v377H0z"/><path fill="#fff" d="M17 11h525v355H17z"/><rect width="505" height="333" x="27" y="23" fill="#F5F6F8" stroke="#000" stroke-dasharray="10 5" stroke-width="2" rx="5"/><rect width="135" height="40" x="37" y="297" fill="#82CBEA" rx="20"/><g filter="url(#a)"><circle cx="57" cy="317" r="12" fill="#fff"/></g><path fill="#323232" d="M81.1 324h-4.9v-13.8h5c1.3 0 2.5.3 3.5.8 1 .6 1.8 1.4 2.3 2.4.6 1 .9 2.2.9 3.7 0 1.4-.3 2.7-.9 3.7-.5 1-1.3 1.8-2.3 2.4-1 .5-2.2.8-3.6.8Zm-2-2.5H81c.8 0 1.6-.2 2.2-.5a3 3 0 0 0 1.3-1.4 6 6 0 0 0 .4-2.5 6 6 0 0 0-.4-2.5 3 3 0 0 0-1.3-1.5c-.6-.3-1.4-.4-2.2-.4H79v8.8Zm13 2.7c-.6 0-1.2-.1-1.7-.3-.5-.3-1-.6-1.2-1a3 3 0 0 1-.5-1.8 2.6 2.6 0 0 1 1.2-2.4l1.2-.5 1.5-.3a37.4 37.4 0 0 0 2.3-.4l.2-.5c0-.5-.1-.8-.4-1-.2-.3-.6-.4-1.1-.4a2 2 0 0 0-1.2.3c-.4.3-.6.6-.7.9l-2.6-.2a3.6 3.6 0 0 1 2.3-2.7 6.6 6.6 0 0 1 3.8-.2c.6.1 1 .3 1.5.6A3 3 0 0 1 98 317v7h-2.7v-1.4h-.1a3 3 0 0 1-1.7 1.4l-1.3.2Zm.9-2c.4 0 .8 0 1.1-.2l.8-.7c.2-.3.2-.6.2-1v-1.1l-.3.2a6.5 6.5 0 0 1-1.1.2 84 84 0 0 0-1.4.3l-.6.4a1 1 0 0 0-.2.7c0 .4.1.7.4 1l1 .2Zm12-8.6v2.2h-6.3v-2.2h6.3Zm-4.8-2.4h2.8v9.6c0 .3 0 .5.2.6 0 .2.1.3.3.3l.5.1h.7l.5 2a7.8 7.8 0 0 1-1.6.3c-.7 0-1.3 0-1.8-.2s-1-.6-1.2-1a3 3 0 0 1-.4-1.7v-10Zm8.9 13c-.7 0-1.3-.1-1.8-.3-.5-.3-1-.6-1.2-1a3 3 0 0 1-.5-1.8 2.6 2.6 0 0 1 1.2-2.4l1.2-.5 1.5-.3a37.3 37.3 0 0 0 2.3-.4l.2-.5c0-.5-.1-.8-.4-1-.3-.3-.6-.4-1.1-.4a2 2 0 0 0-1.3.3l-.6.9-2.6-.2a3.6 3.6 0 0 1 2.3-2.7 6.6 6.6 0 0 1 3.8-.2c.6.1 1 .3 1.5.6a3 3 0 0 1 1.3 2.7v7h-2.7v-1.4h-.1a3 3 0 0 1-1.7 1.4l-1.3.2Zm.8-2c.4 0 .8 0 1-.2.4-.2.7-.4.9-.7l.2-1v-1.1l-.3.2a6.5 6.5 0 0 1-1.1.2 83.7 83.7 0 0 0-1.4.3l-.6.4a1 1 0 0 0-.2.7c0 .4.1.7.4 1l1 .2Zm18.7-5.6-2.6.2c0-.3-.2-.5-.3-.7l-.6-.4a2 2 0 0 0-.8-.2c-.5 0-.9.1-1.2.3-.3.2-.4.5-.4.8 0 .2 0 .4.3.6.2.2.5.3 1 .4l1.9.4c1 .2 1.7.5 2.2 1 .5.4.8 1 .8 1.8 0 .7-.2 1.3-.6 1.8-.4.5-1 .9-1.7 1.2-.7.3-1.5.4-2.4.4-1.3 0-2.4-.3-3.2-.9a3.3 3.3 0 0 1-1.5-2.3l2.9-.2c0 .5.3.8.6 1 .3.2.7.3 1.2.3s1 0 1.3-.3c.3-.2.4-.4.4-.7 0-.3 0-.5-.3-.7l-1-.4-1.8-.3c-1-.2-1.8-.6-2.3-1-.4-.6-.7-1.2-.7-2 0-.6.2-1.2.6-1.7.3-.5.8-.8 1.5-1.1.6-.3 1.4-.4 2.3-.4 1.3 0 2.3.3 3.1.8.8.6 1.2 1.3 1.3 2.3Zm6 7.6c-1 0-2-.2-2.7-.6-.8-.5-1.4-1.1-1.8-1.9-.4-.8-.6-1.7-.6-2.8 0-1.1.2-2 .6-2.8.4-.8 1-1.5 1.8-2 .7-.4 1.6-.6 2.6-.6.7 0 1.3.1 2 .3a4.2 4.2 0 0 1 2.5 2.7c.3.6.4 1.4.4 2.3v.8h-8.8v-1.8h6c0-.4 0-.8-.2-1.1a2 2 0 0 0-.7-.8c-.4-.2-.7-.3-1.1-.3-.5 0-.9.1-1.2.4-.3.1-.6.4-.8.8-.2.3-.3.7-.3 1v1.8c0 .5.1 1 .3 1.3.2.4.5.7.8.9.4.2.8.3 1.3.3.3 0 .6 0 .9-.2.2 0 .4-.2.6-.4l.5-.6 2.6.1c-.1.7-.4 1.2-.8 1.7s-1 .8-1.6 1.1a6 6 0 0 1-2.3.4Zm11.4-10.6v2.2h-6.2v-2.2h6.2Zm-4.8-2.4h2.9v10.2l.4.3.5.1h.7l.5 2a7.8 7.8 0 0 1-1.6.3c-.7 0-1.3 0-1.8-.2s-.9-.6-1.2-1a3 3 0 0 1-.4-1.7v-10Zm15.5-1V324h-2.9v-11l-3.2 2v-2.7l3.4-2.1h2.7Z"/><path fill="#fff" d="M63.6 313c0 1.9-3 3.4-6.7 3.4s-6.7-1.5-6.7-3.4c0-1.8 3-3.3 6.7-3.3s6.7 1.5 6.7 3.3Z"/><path fill="#fff" d="M50.2 313v8.3c0 1.9 3 3.3 6.7 3.3s6.7-1.4 6.7-3.3V313"/><path fill="#323232" fill-rule="evenodd" d="M52.6 311.1c-1.1.6-1.6 1.3-1.6 1.8s.5 1.2 1.6 1.8c1 .5 2.6.9 4.3.9 1.7 0 3.2-.4 4.3-1 1.1-.5 1.6-1.2 1.6-1.7s-.5-1.2-1.6-1.8c-1-.5-2.6-.9-4.3-.9-1.7 0-3.2.4-4.3 1Zm10.2 4-1 .7c-1.3.6-3 1-4.9 1a11 11 0 0 1-4.8-1c-.4-.2-.8-.4-1-.7v1.9c0 .5.4 1.2 1.5 1.8 1 .5 2.6.9 4.3.9 1.7 0 3.2-.4 4.3-1 1.1-.5 1.6-1.2 1.6-1.7v-1.9ZM64 313c0-1.3-1-2.2-2.2-2.9-1.3-.6-3-1-4.9-1a11 11 0 0 0-4.8 1c-1.3.7-2.3 1.6-2.3 2.9v8.2c0 1.3 1 2.2 2.3 2.9 1.2.6 3 1 4.8 1a11 11 0 0 0 4.9-1c1.2-.7 2.2-1.6 2.2-2.9v-8.2Zm-1.2 6.3-1 .7c-1.3.6-3 1-4.9 1a11 11 0 0 1-4.8-1c-.4-.2-.8-.4-1-.7v1.9c0 .5.4 1.2 1.5 1.8 1 .5 2.6.9 4.3.9 1.7 0 3.2-.4 4.3-1 1.1-.5 1.6-1.2 1.6-1.7v-1.9Z" clip-rule="evenodd"/><rect width="135" height="40" x="212" y="297" fill="#F6EC73" rx="20"/><g filter="url(#b)"><circle cx="232" cy="317" r="12" fill="#fff"/></g><path fill="#323232" d="M256.1 324h-4.9v-13.8h5c1.3 0 2.5.3 3.5.8 1 .6 1.8 1.4 2.3 2.4.6 1 .9 2.2.9 3.7 0 1.4-.3 2.7-.9 3.7-.5 1-1.3 1.8-2.3 2.4-1 .5-2.2.8-3.6.8Zm-2-2.5h1.9c.8 0 1.6-.2 2.2-.5a3 3 0 0 0 1.3-1.4 6 6 0 0 0 .4-2.5 6 6 0 0 0-.4-2.5 3 3 0 0 0-1.3-1.5c-.6-.3-1.4-.4-2.2-.4H254v8.8Zm13 2.7c-.6 0-1.2-.1-1.7-.3-.5-.3-1-.6-1.2-1a3 3 0 0 1-.5-1.8 2.6 2.6 0 0 1 1.2-2.4l1.2-.5 1.5-.3a37.5 37.5 0 0 0 2.3-.4l.2-.5c0-.5-.1-.8-.4-1-.2-.3-.6-.4-1.1-.4a2 2 0 0 0-1.2.3c-.4.3-.6.6-.7.9l-2.6-.2a3.6 3.6 0 0 1 2.3-2.7 6.6 6.6 0 0 1 3.8-.2c.6.1 1 .3 1.5.6a3 3 0 0 1 1.3 2.7v7h-2.7v-1.4h-.1a3 3 0 0 1-1.7 1.4l-1.3.2Zm.9-2c.4 0 .8 0 1.1-.2l.8-.7c.2-.3.2-.6.2-1v-1.1l-.3.2a6.5 6.5 0 0 1-1.1.2 74.3 74.3 0 0 0-1.4.3l-.6.4a1 1 0 0 0-.2.7c0 .4.1.7.4 1l1 .2Zm12-8.6v2.2h-6.3v-2.2h6.3Zm-4.8-2.4h2.8v9.6c0 .3 0 .5.2.6 0 .2.1.3.3.3l.5.1h.7l.5 2a7.8 7.8 0 0 1-1.6.3c-.7 0-1.3 0-1.8-.2s-1-.6-1.2-1a3 3 0 0 1-.4-1.7v-10Zm8.9 13c-.7 0-1.3-.1-1.8-.3-.5-.3-1-.6-1.2-1a3 3 0 0 1-.5-1.8 2.6 2.6 0 0 1 1.2-2.4l1.2-.5 1.5-.3a37.3 37.3 0 0 0 2.3-.4l.2-.5c0-.5-.1-.8-.4-1-.3-.3-.6-.4-1.1-.4a2 2 0 0 0-1.3.3l-.6.9-2.6-.2a3.6 3.6 0 0 1 2.3-2.7 6.6 6.6 0 0 1 3.8-.2c.6.1 1 .3 1.5.6a3 3 0 0 1 1.3 2.7v7h-2.7v-1.4h-.1a3 3 0 0 1-1.7 1.4l-1.3.2Zm.8-2c.4 0 .8 0 1.1-.2l.8-.7.2-1v-1.1l-.3.2a6.5 6.5 0 0 1-1.1.2 83.7 83.7 0 0 0-1.4.3l-.6.4a1 1 0 0 0-.2.7c0 .4.1.7.4 1l1 .2Zm18.7-5.6-2.6.2c0-.3-.2-.5-.3-.7l-.6-.4a2 2 0 0 0-.8-.2c-.5 0-.9.1-1.2.3-.3.2-.4.5-.4.8 0 .2 0 .4.3.6.2.2.5.3 1 .4l1.9.4c1 .2 1.7.5 2.2 1 .5.4.8 1 .8 1.8 0 .7-.2 1.3-.6 1.8-.4.5-1 .9-1.7 1.2-.7.3-1.5.4-2.4.4-1.3 0-2.4-.3-3.2-.9a3.3 3.3 0 0 1-1.5-2.3l2.9-.2c0 .5.3.8.6 1 .3.2.7.3 1.2.3.6 0 1 0 1.3-.3.3-.2.4-.4.4-.7 0-.3 0-.5-.3-.7l-1-.4-1.8-.3c-1-.2-1.8-.6-2.3-1-.4-.6-.7-1.2-.7-2 0-.6.2-1.2.6-1.7.3-.5.8-.8 1.5-1.1.6-.3 1.4-.4 2.3-.4 1.3 0 2.3.3 3.1.8.8.6 1.2 1.3 1.3 2.3Zm6 7.6c-1 0-2-.2-2.7-.6-.8-.5-1.4-1.1-1.8-1.9-.4-.8-.6-1.7-.6-2.8 0-1.1.2-2 .6-2.8.4-.8 1-1.5 1.8-2 .7-.4 1.6-.6 2.6-.6.7 0 1.3.1 2 .3a4.2 4.2 0 0 1 2.5 2.7c.3.6.4 1.4.4 2.3v.8h-8.8v-1.8h6c0-.4 0-.8-.2-1.1a2 2 0 0 0-.7-.8c-.4-.2-.7-.3-1.1-.3-.5 0-.9.1-1.2.4-.3.1-.6.4-.8.8-.2.3-.3.7-.3 1v1.8c0 .5.1 1 .3 1.3.2.4.5.7.8.9.4.2.8.3 1.3.3.3 0 .6 0 .9-.2.2 0 .4-.2.6-.4l.5-.6 2.6.1c-.1.7-.4 1.2-.8 1.7s-1 .8-1.6 1.1a6 6 0 0 1-2.3.4Zm11.4-10.6v2.2h-6.2v-2.2h6.2Zm-4.8-2.4h2.9v10.2l.4.3.5.1h.7l.5 2a7.8 7.8 0 0 1-1.6.3c-.7 0-1.3 0-1.8-.2s-.9-.6-1.2-1a3 3 0 0 1-.4-1.7v-10Zm9.5 12.8v-2.1l5-4.6 1-1 .7-1 .2-1c0-.4-.1-.8-.3-1-.2-.4-.4-.6-.7-.8l-1.1-.2c-.5 0-.8 0-1.1.3-.4.1-.6.4-.8.7l-.2 1.1h-2.8a4.1 4.1 0 0 1 2.3-3.9c.8-.3 1.6-.5 2.6-.5s1.8.2 2.6.5c.7.4 1.3.8 1.7 1.5.4.6.6 1.3.6 2 0 .6-.1 1.1-.3 1.6l-1 1.7a25 25 0 0 1-2.3 2.2l-2 2v.1h5.8v2.4h-9.9Z"/><path fill="#fff" d="M238.6 313c0 1.9-3 3.4-6.7 3.4s-6.7-1.5-6.7-3.4c0-1.8 3-3.3 6.7-3.3s6.7 1.5 6.7 3.3Z"/><path fill="#fff" d="M225.2 313v8.3c0 1.9 3 3.3 6.7 3.3s6.7-1.4 6.7-3.3V313"/><path fill="#323232" fill-rule="evenodd" d="M227.6 311.1c-1.1.6-1.6 1.3-1.6 1.8s.5 1.2 1.6 1.8c1 .5 2.6.9 4.3.9 1.7 0 3.2-.4 4.3-1 1.1-.5 1.6-1.2 1.6-1.7s-.5-1.2-1.6-1.8c-1-.5-2.6-.9-4.3-.9-1.7 0-3.2.4-4.3 1Zm10.2 4-1 .7c-1.3.6-3 1-4.9 1a11 11 0 0 1-4.8-1c-.4-.2-.8-.4-1-.7v1.9c0 .5.4 1.2 1.5 1.8 1 .5 2.6.9 4.3.9 1.7 0 3.2-.4 4.3-1 1.1-.5 1.6-1.2 1.6-1.7v-1.9Zm1.2-2.2c0-1.3-1-2.2-2.2-2.9-1.3-.6-3-1-4.9-1a11 11 0 0 0-4.8 1c-1.3.7-2.3 1.6-2.3 2.9v8.2c0 1.3 1 2.2 2.3 2.9 1.2.6 3 1 4.8 1a11 11 0 0 0 4.9-1c1.2-.7 2.2-1.6 2.2-2.9v-8.2Zm-1.2 6.3-1 .7c-1.3.6-3 1-4.9 1a11 11 0 0 1-4.8-1c-.4-.2-.8-.4-1-.7v1.9c0 .5.4 1.2 1.5 1.8 1 .5 2.6.9 4.3.9 1.7 0 3.2-.4 4.3-1 1.1-.5 1.6-1.2 1.6-1.7v-1.9Z" clip-rule="evenodd"/><rect width="135" height="40" x="387" y="297" fill="#80E6BB" rx="20"/><g filter="url(#c)"><circle cx="407" cy="317" r="12" fill="#fff"/></g><path fill="#323232" d="M431.1 324h-4.9v-13.8h5c1.3 0 2.5.3 3.5.8 1 .6 1.8 1.4 2.3 2.4.6 1 .9 2.2.9 3.7 0 1.4-.3 2.7-.9 3.7-.5 1-1.3 1.8-2.3 2.4-1 .5-2.2.8-3.6.8Zm-2-2.5h1.9c.8 0 1.6-.2 2.2-.5a3 3 0 0 0 1.3-1.4 6 6 0 0 0 .4-2.5 6 6 0 0 0-.4-2.5 3 3 0 0 0-1.3-1.5c-.6-.3-1.4-.4-2.2-.4H429v8.8Zm13 2.7c-.6 0-1.2-.1-1.7-.3-.5-.3-1-.6-1.2-1a3 3 0 0 1-.5-1.8 2.6 2.6 0 0 1 1.2-2.4l1.2-.5 1.5-.3a37.5 37.5 0 0 0 2.3-.4l.2-.5c0-.5-.1-.8-.4-1-.2-.3-.6-.4-1.1-.4a2 2 0 0 0-1.2.3c-.4.3-.6.6-.7.9l-2.6-.2a3.6 3.6 0 0 1 2.3-2.7 6.6 6.6 0 0 1 3.8-.2c.6.1 1 .3 1.5.6a3 3 0 0 1 1.3 2.7v7h-2.7v-1.4h-.1a3 3 0 0 1-1.7 1.4l-1.3.2Zm.9-2c.4 0 .8 0 1.1-.2l.8-.7c.2-.3.2-.6.2-1v-1.1l-.3.2a6.5 6.5 0 0 1-1.1.2 74.3 74.3 0 0 0-1.4.3l-.6.4a1 1 0 0 0-.2.7c0 .4.1.7.4 1l1 .2Zm12-8.6v2.2h-6.3v-2.2h6.3Zm-4.8-2.4h2.8v9.6c0 .3 0 .5.2.6 0 .2.1.3.3.3l.5.1h.7l.5 2a7.8 7.8 0 0 1-1.6.3c-.7 0-1.3 0-1.8-.2s-1-.6-1.2-1a3 3 0 0 1-.4-1.7v-10Zm8.9 13c-.7 0-1.3-.1-1.8-.3-.5-.3-1-.6-1.2-1a3 3 0 0 1-.5-1.8 2.6 2.6 0 0 1 1.2-2.4l1.2-.5 1.5-.3a37.3 37.3 0 0 0 2.3-.4l.2-.5c0-.5-.1-.8-.4-1-.3-.3-.6-.4-1.1-.4a2 2 0 0 0-1.3.3l-.6.9-2.6-.2a3.6 3.6 0 0 1 2.3-2.7 6.6 6.6 0 0 1 3.8-.2c.6.1 1 .3 1.5.6a3 3 0 0 1 1.3 2.7v7h-2.7v-1.4h-.1a3 3 0 0 1-1.7 1.4l-1.3.2Zm.8-2c.4 0 .8 0 1.1-.2l.8-.7.2-1v-1.1l-.3.2a6.5 6.5 0 0 1-1.1.2 83.7 83.7 0 0 0-1.4.3l-.6.4a1 1 0 0 0-.2.7c0 .4.1.7.4 1l1 .2Zm18.7-5.6-2.6.2c0-.3-.2-.5-.3-.7l-.6-.4a2 2 0 0 0-.8-.2c-.5 0-.9.1-1.2.3-.3.2-.4.5-.4.8 0 .2 0 .4.3.6.2.2.5.3 1 .4l1.9.4c1 .2 1.7.5 2.2 1 .5.4.8 1 .8 1.8 0 .7-.2 1.3-.6 1.8-.4.5-1 .9-1.7 1.2-.7.3-1.5.4-2.4.4-1.3 0-2.4-.3-3.2-.9a3.3 3.3 0 0 1-1.5-2.3l2.9-.2c0 .5.3.8.6 1 .3.2.7.3 1.2.3.6 0 1 0 1.3-.3.3-.2.4-.4.4-.7 0-.3 0-.5-.3-.7l-1-.4-1.8-.3c-1-.2-1.8-.6-2.3-1-.4-.6-.7-1.2-.7-2 0-.6.2-1.2.6-1.7.3-.5.8-.8 1.5-1.1.6-.3 1.4-.4 2.3-.4 1.3 0 2.3.3 3.1.8.8.6 1.2 1.3 1.3 2.3Zm6 7.6c-1 0-2-.2-2.7-.6-.8-.5-1.4-1.1-1.8-1.9-.4-.8-.6-1.7-.6-2.8 0-1.1.2-2 .6-2.8.4-.8 1-1.5 1.8-2 .7-.4 1.6-.6 2.6-.6.7 0 1.3.1 2 .3a4.2 4.2 0 0 1 2.5 2.7c.3.6.4 1.4.4 2.3v.8h-8.8v-1.8h6c0-.4 0-.8-.2-1.1a2 2 0 0 0-.7-.8c-.4-.2-.7-.3-1.1-.3-.5 0-.9.1-1.2.4-.3.1-.6.4-.8.8-.2.3-.3.7-.3 1v1.8c0 .5.1 1 .3 1.3.2.4.5.7.8.9.4.2.8.3 1.3.3.3 0 .6 0 .9-.2.2 0 .4-.2.6-.4l.5-.6 2.6.1c-.1.7-.4 1.2-.8 1.7s-1 .8-1.6 1.1a6 6 0 0 1-2.3.4Zm11.4-10.6v2.2h-6.2v-2.2h6.2Zm-4.8-2.4h2.9v10.2l.4.3.5.1h.7l.5 2a7.8 7.8 0 0 1-1.6.3c-.7 0-1.3 0-1.8-.2s-.9-.6-1.2-1a3 3 0 0 1-.4-1.7v-10Zm14.6 13c-1 0-1.9-.2-2.6-.5-.8-.4-1.5-.9-1.9-1.5-.5-.6-.7-1.3-.7-2.1h3c0 .3 0 .6.3.9l.8.6 1.1.2c.5 0 .9-.1 1.2-.3.4-.1.6-.3.8-.6.2-.3.3-.6.3-1 0-.3 0-.7-.3-1a2 2 0 0 0-.9-.6c-.3-.2-.8-.3-1.3-.3h-1.3V316h1.3c.4 0 .8 0 1.2-.2l.8-.7.2-1a1.6 1.6 0 0 0-1-1.5l-1-.2c-.3 0-.7 0-1 .2a2 2 0 0 0-.8.6c-.2.3-.3.6-.3 1h-2.8c0-.9.2-1.6.7-2.2.4-.6 1-1 1.7-1.4a6 6 0 0 1 2.6-.5c1 0 1.8.2 2.5.5.7.4 1.3.8 1.7 1.4.4.6.6 1.3.5 2 0 .8-.2 1.4-.7 2-.5.4-1 .8-1.9 1 1 .1 1.8.5 2.4 1 .5.6.8 1.4.8 2.2 0 .8-.3 1.5-.7 2.1-.5.6-1.1 1.1-1.9 1.5-.8.3-1.7.5-2.8.5Z"/><path fill="#fff" d="M413.6 313c0 1.9-3 3.4-6.7 3.4s-6.7-1.5-6.7-3.4c0-1.8 3-3.3 6.7-3.3s6.7 1.5 6.7 3.3Z"/><path fill="#fff" d="M400.2 313v8.3c0 1.9 3 3.3 6.7 3.3s6.7-1.4 6.7-3.3V313"/><path fill="#323232" fill-rule="evenodd" d="M402.6 311.1c-1.1.6-1.6 1.3-1.6 1.8s.5 1.2 1.6 1.8c1 .5 2.6.9 4.3.9 1.7 0 3.2-.4 4.3-1 1.1-.5 1.6-1.2 1.6-1.7s-.5-1.2-1.6-1.8c-1-.5-2.6-.9-4.3-.9-1.7 0-3.2.4-4.3 1Zm10.2 4-1 .7c-1.3.6-3 1-4.9 1a11 11 0 0 1-4.8-1c-.4-.2-.8-.4-1-.7v1.9c0 .5.4 1.2 1.5 1.8 1 .5 2.6.9 4.3.9 1.7 0 3.2-.4 4.3-1 1.1-.5 1.6-1.2 1.6-1.7v-1.9Zm1.2-2.2c0-1.3-1-2.2-2.2-2.9-1.3-.6-3-1-4.9-1a11 11 0 0 0-4.8 1c-1.3.7-2.3 1.6-2.3 2.9v8.2c0 1.3 1 2.2 2.3 2.9 1.2.6 3 1 4.8 1a11 11 0 0 0 4.9-1c1.2-.7 2.2-1.6 2.2-2.9v-8.2Zm-1.2 6.3-1 .7c-1.3.6-3 1-4.9 1a11 11 0 0 1-4.8-1c-.4-.2-.8-.4-1-.7v1.9c0 .5.4 1.2 1.5 1.8 1 .5 2.6.9 4.3.9 1.7 0 3.2-.4 4.3-1 1.1-.5 1.6-1.2 1.6-1.7v-1.9Z" clip-rule="evenodd"/><path stroke="#000" stroke-width="2" d="M278 297V96M103 297v-67c0-11 9-20 20-20h154M454 297v-67c0-11-9-20-20-20H279"/><rect width="255" height="40" x="150" y="75" fill="#fff" rx="20"/><g filter="url(#d)"><circle cx="170" cy="95" r="12" fill="#fff"/></g><path fill="#fff" d="M171 91a1.8 1.8 0 1 0 0-3.5 1.8 1.8 0 0 0 0 3.5Z"/><path fill="#323232" fill-rule="evenodd" d="M171 87.9a1.3 1.3 0 1 0 0 2.6 1.3 1.3 0 0 0 0-2.6Zm-2.2 1.3a2.2 2.2 0 1 1 4.4 0 2.2 2.2 0 0 1-4.4 0Z" clip-rule="evenodd"/><path fill="#fff" d="M176.8 97a1.8 1.8 0 1 0 0-3.5 1.8 1.8 0 0 0 0 3.5Z"/><path fill="#323232" fill-rule="evenodd" d="M176.8 94a1.3 1.3 0 1 0 0 2.6 1.3 1.3 0 0 0 0-2.6Zm-2.2 1.3a2.2 2.2 0 1 1 4.4 0 2.2 2.2 0 0 1-4.4 0Z" clip-rule="evenodd"/><path fill="#fff" d="M171 102.8a1.8 1.8 0 1 0 0-3.6 1.8 1.8 0 0 0 0 3.5Z"/><path fill="#323232" fill-rule="evenodd" d="M171 99.7a1.3 1.3 0 1 0 0 2.6 1.3 1.3 0 0 0 0-2.6Zm-2.2 1.3a2.2 2.2 0 1 1 4.4 0 2.2 2.2 0 0 1-4.4 0Z" clip-rule="evenodd"/><path fill="#fff" d="M165.2 100.2a1.8 1.8 0 1 0 0-3.5 1.8 1.8 0 0 0 0 3.5Z"/><path fill="#323232" fill-rule="evenodd" d="M165.2 97.1a1.3 1.3 0 1 0 0 2.6 1.3 1.3 0 0 0 0-2.6Zm-2.2 1.3a2.2 2.2 0 1 1 4.4 0 2.2 2.2 0 0 1-4.4 0Z" clip-rule="evenodd"/><path fill="#fff" d="M165.2 93.3a1.8 1.8 0 1 0 0-3.5 1.8 1.8 0 0 0 0 3.5Z"/><path fill="#323232" fill-rule="evenodd" d="M165.2 90.3a1.3 1.3 0 1 0 0 2.6 1.3 1.3 0 0 0 0-2.6Zm-2.2 1.3a2.2 2.2 0 1 1 4.4 0 2.2 2.2 0 0 1-4.4 0Z" clip-rule="evenodd"/><path fill="#fff" d="M171 96a1.4 1.4 0 1 0 0-2.8 1.4 1.4 0 0 0 0 2.8Z"/><path fill="#323232" fill-rule="evenodd" d="M171 93.6a1 1 0 1 0 0 2 1 1 0 0 0 0-2Zm-1.8 1a1.9 1.9 0 1 1 3.7 0 1.9 1.9 0 0 1-3.7 0ZM169.5 90l-2.6 1-.3-.7 2.6-1 .3.8ZM175.2 94.4l-3.3-3.6.7-.6 3.3 3.5-.7.7ZM172 99.4l3.4-3 .6.6-3.4 3.1-.6-.7ZM169.6 99.8l-3.8-6.5.8-.5 3.7 6.6-.7.4ZM169 100.8l-2.4-1.1.3-.9 2.6 1.2-.4.8Z" clip-rule="evenodd"/><path fill="#323232" fill-rule="evenodd" d="m170.5 91-4.3 6-.7-.5 4.2-6 .8.4Z" clip-rule="evenodd"/><path fill="#323232" fill-rule="evenodd" d="m169.6 94.3-3-1.7.4-.7 3 1.6-.4.8ZM175 95.4l-2.6-.2v-1l2.7.3v.9ZM170.6 99.2V96h.9v3.2h-1Z" clip-rule="evenodd"/><path fill="#323232" d="M189.2 88.2h3.6l3.8 9.3h.2l3.8-9.3h3.6V102h-2.9v-9l-3.6 9h-2l-3.5-9h-.2v9h-2.8V88.2Zm19.5 14c-.6 0-1.2-.1-1.7-.3-.6-.3-1-.6-1.3-1a3 3 0 0 1-.4-1.8c0-.6 0-1 .3-1.4.2-.4.5-.8.9-1l1.2-.5 1.5-.3a37 37 0 0 0 2.2-.4c.2-.1.3-.3.3-.5 0-.5-.1-.8-.4-1-.3-.3-.7-.4-1.1-.4a2 2 0 0 0-1.3.3l-.6.9-2.6-.2a3.6 3.6 0 0 1 2.3-2.7 6.6 6.6 0 0 1 3.8-.2c.5.1 1 .3 1.4.6a3 3 0 0 1 1.4 2.7v7h-2.8v-1.4a3 3 0 0 1-1.7 1.4l-1.4.2Zm.9-2c.4 0 .7 0 1-.2.4-.2.6-.4.8-.7.2-.3.3-.6.3-1v-1.1l-.4.2a6.9 6.9 0 0 1-1 .2 176.4 176.4 0 0 0-1.5.3l-.6.4a1 1 0 0 0-.2.7c0 .4.2.7.5 1l1 .2Zm11.1 2c-1 0-2-.2-2.7-.7-.8-.4-1.4-1-1.8-1.9-.4-.8-.6-1.7-.6-2.7 0-1.1.2-2 .6-2.8.4-.8 1-1.5 1.8-2 .8-.4 1.7-.6 2.7-.6 1 0 1.7.2 2.4.5a4 4 0 0 1 1.6 1.4c.4.6.6 1.3.6 2h-2.7c0-.4-.2-.9-.6-1.2-.3-.3-.7-.5-1.2-.5a2 2 0 0 0-1.2.4c-.3.2-.6.6-.8 1-.2.5-.3 1-.3 1.7s.1 1.2.3 1.7c.2.5.4.8.8 1 .3.3.7.4 1.2.4.3 0 .6 0 .8-.2.3-.1.5-.3.7-.6.2-.2.3-.5.3-.9h2.7c0 .8-.2 1.5-.6 2-.4.7-1 1.2-1.6 1.5-.7.3-1.5.5-2.4.5Zm8.6-6.2v6h-2.9V88.2h2.8v5.3h.1c.3-.6.7-1.1 1.2-1.5.5-.3 1.2-.5 2-.5.7 0 1.3.2 1.8.5.6.3 1 .7 1.3 1.3.3.6.4 1.3.4 2.1v6.6h-2.9v-6c0-.7-.1-1.2-.4-1.6-.4-.3-.8-.5-1.4-.5-.4 0-.7 0-1 .2-.3.2-.6.4-.7.8-.2.3-.3.7-.3 1.1Zm8.2 6V91.6h2.9V102h-2.9Zm1.5-11.7c-.5 0-.8-.1-1.1-.4a1.4 1.4 0 0 1 0-2c.3-.4.6-.5 1-.5.5 0 .9.1 1.2.4.3.3.4.6.4 1s-.1.8-.4 1c-.3.4-.7.5-1.1.5Zm5.8 5.7v6H242V91.6h2.8v1.9h.1c.2-.6.6-1.1 1.2-1.5.5-.3 1.1-.5 2-.5.6 0 1.3.2 1.8.5s1 .7 1.2 1.3c.3.6.5 1.3.5 2.1v6.6h-2.9v-6a2 2 0 0 0-.5-1.6c-.3-.3-.7-.5-1.3-.5a2 2 0 0 0-1 .2c-.3.2-.6.4-.7.8-.2.3-.3.7-.3 1.1Zm13 6.2c-1.1 0-2-.2-2.8-.6-.8-.5-1.4-1.1-1.8-1.9-.4-.8-.6-1.7-.6-2.8 0-1.1.2-2 .6-2.8.4-.8 1-1.5 1.7-2 .8-.4 1.7-.6 2.7-.6.7 0 1.3.1 2 .3a4.2 4.2 0 0 1 2.5 2.7c.3.6.4 1.4.4 2.3v.8h-8.8v-1.8h6c0-.4 0-.8-.2-1.1a2 2 0 0 0-.7-.8c-.4-.2-.7-.3-1.1-.3-.5 0-.9.1-1.2.4-.3.1-.6.4-.8.8-.2.3-.3.7-.3 1v1.8c0 .5.1 1 .3 1.3.2.4.5.7.8.9.4.2.8.3 1.3.3.3 0 .6 0 .8-.2.3 0 .5-.2.7-.4l.5-.6 2.6.1c-.1.7-.4 1.2-.8 1.7s-1 .8-1.6 1.1a6 6 0 0 1-2.3.4Zm12.3-14V102h-2.9V88.2h3Zm6.3 14c-1 0-2-.2-2.8-.6-.7-.5-1.3-1.1-1.8-1.9-.4-.8-.6-1.7-.6-2.8 0-1.1.2-2 .7-2.8.4-.8 1-1.5 1.7-2 .8-.4 1.6-.6 2.7-.6.6 0 1.3.1 1.9.3a4.2 4.2 0 0 1 2.6 2.7c.2.6.3 1.4.3 2.3v.8h-8.7v-1.8h6c0-.4 0-.8-.2-1.1a2 2 0 0 0-.8-.8c-.3-.2-.7-.3-1.1-.3-.4 0-.8.1-1.2.4-.3.1-.6.4-.7.8-.2.3-.3.7-.3 1v1.8c0 .5 0 1 .3 1.3.1.4.4.7.8.9.3.2.7.3 1.2.3.3 0 .6 0 .9-.2.3 0 .5-.2.7-.4l.4-.6 2.7.1c-.2.7-.4 1.2-.9 1.7-.4.5-1 .8-1.6 1.1a6 6 0 0 1-2.2.4Zm8.8 0c-.7 0-1.3-.1-1.8-.3-.5-.3-.9-.6-1.2-1a3 3 0 0 1-.4-1.8c0-.6 0-1 .3-1.4.2-.4.5-.8.8-1l1.3-.5c.4-.2 1-.2 1.5-.3a37.4 37.4 0 0 0 2.2-.4c.2-.1.3-.3.3-.5 0-.5-.2-.8-.4-1-.3-.3-.7-.4-1.2-.4a2 2 0 0 0-1.2.3l-.6.9-2.7-.2a3.6 3.6 0 0 1 2.3-2.7 6.6 6.6 0 0 1 3.8-.2c.6.1 1 .3 1.5.6A3 3 0 0 1 291 95v7h-2.7v-1.4a3 3 0 0 1-1.7 1.4l-1.4.2Zm.8-2c.4 0 .8 0 1.1-.2.4-.2.6-.4.8-.7.2-.3.3-.6.3-1v-1.1l-.4.2a6.8 6.8 0 0 1-1 .2 139.7 139.7 0 0 0-1.5.3l-.6.4a1 1 0 0 0-.2.7c0 .4.1.7.4 1l1.1.2Zm6.5 1.8V91.6h2.8v1.8h.1c.2-.6.5-1 1-1.4.4-.3 1-.5 1.5-.5a4.4 4.4 0 0 1 .9 0v2.6h-.6a5 5 0 0 0-.6-.1c-.4 0-.8 0-1.2.3a2 2 0 0 0-1 1.8v5.9h-2.9Zm9.9-6v6h-2.9V91.6h2.8v1.9c.3-.6.7-1.1 1.2-1.5.6-.3 1.2-.5 2-.5.7 0 1.3.2 1.9.5.5.3 1 .7 1.2 1.3.3.6.5 1.3.5 2.1v6.6h-2.9v-6a2 2 0 0 0-.5-1.6 2 2 0 0 0-2.4-.3c-.3.2-.5.4-.7.8l-.2 1.1Zm8.2 6V91.6h2.9V102h-3Zm1.4-11.7c-.4 0-.8-.1-1-.4-.4-.3-.5-.7-.5-1 0-.5.1-.8.4-1 .3-.4.7-.5 1.1-.5.4 0 .8.1 1.1.4.3.3.5.6.5 1s-.2.8-.5 1c-.3.4-.7.5-1 .5ZM318 96v6H315V91.6h2.7v1.9h.2c.2-.6.6-1.1 1.1-1.5.6-.3 1.2-.5 2-.5.7 0 1.3.2 1.9.5.5.3 1 .7 1.2 1.3.3.6.4 1.3.4 2.1v6.6h-2.8v-6a2 2 0 0 0-.5-1.6c-.3-.3-.8-.5-1.4-.5a2 2 0 0 0-1 .2c-.3.2-.5.4-.7.8L318 96Zm12.8 10.1c-1 0-1.7-.1-2.4-.4a4 4 0 0 1-1.6-1c-.3-.5-.6-1-.7-1.5l2.6-.3a1.7 1.7 0 0 0 1.1 1l1 .1c.7 0 1.2-.1 1.6-.4.4-.3.6-.8.6-1.5v-2a2.7 2.7 0 0 1-1.6 1.5c-.4.2-.9.3-1.4.3-.8 0-1.5-.2-2.2-.6-.6-.4-1-1-1.5-1.7-.3-.7-.5-1.7-.5-2.8 0-1.2.2-2.2.5-3 .4-.7 1-1.3 1.6-1.7a4 4 0 0 1 3.5-.3l1 .7.5.9h.1v-1.8h2.9v10.5c0 .9-.2 1.6-.7 2.2-.4.6-1 1-1.8 1.4a7 7 0 0 1-2.6.4Zm0-6.4a2 2 0 0 0 1.3-.4c.3-.2.5-.5.7-1a4.4 4.4 0 0 0 0-3.1c-.2-.4-.4-.8-.7-1-.4-.3-.8-.4-1.2-.4-.5 0-.9.1-1.2.4-.3.2-.6.6-.7 1-.2.5-.3 1-.3 1.6 0 .6 0 1.1.3 1.5.1.5.4.8.7 1 .3.3.7.4 1.2.4ZM341 102V91.6h2.7v1.9h.1c.2-.6.6-1.1 1.1-1.5a3 3 0 0 1 1.8-.5 3 3 0 0 1 1.8.5c.5.4.9.9 1 1.5h.1c.2-.6.6-1.1 1.2-1.5.5-.3 1.2-.5 2-.5 1 0 1.7.3 2.3 1 .6.5 1 1.4 1 2.5v7h-3v-6.4c0-.6-.1-1-.4-1.3-.3-.3-.7-.4-1.2-.4s-.9.1-1.2.5c-.3.3-.4.7-.4 1.3v6.3H347v-6.5c0-.5-.2-.9-.4-1.2-.3-.3-.7-.4-1.2-.4-.3 0-.6 0-.8.2-.3.2-.5.4-.6.7-.2.3-.3.6-.3 1v6.2H341Zm21.2.2c-1 0-2-.2-2.7-.7-.8-.4-1.4-1-1.8-1.8a6 6 0 0 1-.6-2.8c0-1.1.2-2 .6-2.8.4-.9 1-1.5 1.8-2 .8-.4 1.7-.6 2.7-.6 1 0 2 .2 2.7.7.8.4 1.4 1 1.8 1.9.4.8.6 1.7.6 2.8 0 1-.2 2-.6 2.8-.4.8-1 1.4-1.8 1.8-.7.5-1.6.7-2.7.7Zm0-2.2c.5 0 .9-.2 1.2-.4.3-.3.6-.7.7-1.1.2-.5.3-1 .3-1.7 0-.6-.1-1.1-.3-1.6-.1-.4-.4-.8-.7-1-.3-.4-.7-.5-1.2-.5s-.9.1-1.2.4c-.3.3-.6.7-.7 1.1a5 5 0 0 0-.3 1.6c0 .6.1 1.2.3 1.7.1.4.4.8.7 1 .3.3.7.5 1.2.5Zm10 2.2a4 4 0 0 1-2.1-.6c-.6-.4-1.1-1-1.5-1.8a7 7 0 0 1-.6-3c0-1.2.2-2.1.6-3 .4-.7.9-1.3 1.5-1.7a3.9 3.9 0 0 1 3.6-.3l1 .7.5.9v-5.2h3V102h-2.9v-1.7h-.1l-.6.9c-.2.3-.6.5-1 .7-.3.2-.8.3-1.4.3Zm1-2.3c.4 0 .8-.1 1.1-.4l.8-1 .2-1.7c0-.6 0-1.1-.2-1.6-.2-.4-.4-.8-.8-1-.3-.3-.7-.4-1.2-.4-.4 0-.8.1-1.1.4-.4.2-.6.6-.8 1l-.2 1.6c0 .6 0 1.2.2 1.6.2.5.4.8.8 1.1.3.3.7.4 1.1.4Zm11.3 2.3c-1.1 0-2-.2-2.8-.6-.8-.5-1.3-1.1-1.8-1.9-.4-.8-.6-1.7-.6-2.8 0-1.1.2-2 .6-2.8.5-.8 1-1.5 1.8-2 .7-.4 1.6-.6 2.6-.6.7 0 1.4.1 2 .3a4.2 4.2 0 0 1 2.5 2.7c.3.6.4 1.4.4 2.3v.8h-8.7v-1.8h6c0-.4 0-.8-.3-1.1a2 2 0 0 0-.7-.8c-.3-.2-.7-.3-1.1-.3-.4 0-.8.1-1.2.4-.3.1-.6.4-.8.8l-.2 1v1.8c0 .5 0 1 .2 1.3.2.4.5.7.9.9.3.2.7.3 1.2.3.3 0 .6 0 .9-.2.3 0 .5-.2.7-.4l.4-.6 2.7.1c-.2.7-.5 1.2-.9 1.7s-1 .8-1.6 1.1a6 6 0 0 1-2.2.4Zm8.7-14V102h-2.9V88.2h3Z"/><rect width="201" height="40" x="177" y="142" fill="#fff" rx="20"/><g filter="url(#e)"><circle cx="197" cy="162" r="12" fill="#fff"/></g><path fill="#323232" d="M228.4 160h-3c0-.4-.1-.7-.3-1l-.6-.8-1-.5-1-.1c-.8 0-1.4.2-2 .5-.4.4-.8.9-1.1 1.5a6 6 0 0 0-.5 2.5c0 1 .2 1.8.5 2.5.3.6.7 1.2 1.2 1.5a3.7 3.7 0 0 0 3 .4l.8-.5.7-.7.3-1h3a5.4 5.4 0 0 1-1.8 3.4c-.5.5-1.1.8-1.8 1-.7.4-1.5.5-2.4.5-1.2 0-2.3-.3-3.3-.8a6 6 0 0 1-2.3-2.5c-.6-1-.8-2.3-.8-3.8a8 8 0 0 1 .8-3.9 6 6 0 0 1 2.3-2.4c1-.5 2-.8 3.3-.8a7 7 0 0 1 2.2.3c.7.3 1.3.6 1.8 1 .6.4 1 1 1.3 1.6.4.6.6 1.3.7 2.1Zm6 9.2c-1 0-2-.2-2.8-.6-.7-.5-1.3-1.1-1.7-1.9-.4-.8-.6-1.7-.6-2.8 0-1.1.2-2 .6-2.8.4-.8 1-1.5 1.7-2 .8-.4 1.7-.6 2.7-.6.7 0 1.3.1 1.9.3a4.2 4.2 0 0 1 2.6 2.7c.2.6.4 1.4.4 2.3v.8h-8.8v-1.8h6c0-.4 0-.8-.2-1.1a2 2 0 0 0-.8-.8c-.3-.2-.7-.3-1-.3a2.2 2.2 0 0 0-2 1.2c-.2.3-.3.7-.3 1v1.8c0 .5 0 1 .3 1.3.2.4.4.7.8.9a2.7 2.7 0 0 0 2.1.2l.7-.5.4-.6 2.7.1c-.1.7-.4 1.2-.8 1.7-.5.5-1 .8-1.6 1.1a6 6 0 0 1-2.3.4Zm8.7-6.2v6h-2.8v-10.4h2.7v1.9h.1c.3-.6.6-1.1 1.2-1.5.5-.3 1.2-.5 2-.5.7 0 1.3.2 1.8.5.6.3 1 .7 1.3 1.3.3.6.4 1.3.4 2.1v6.6H247v-6a2 2 0 0 0-.4-1.6c-.4-.3-.8-.5-1.4-.5a2 2 0 0 0-1 .2c-.3.2-.5.4-.7.8-.2.3-.3.7-.3 1.1Zm13.7-4.4v2.2h-6.2v-2.2h6.2Zm-4.8-2.4h2.9v9.6l.1.6c0 .2.2.3.3.3l.6.1h.7l.4 2a7.8 7.8 0 0 1-1.5.3c-.7 0-1.3 0-1.8-.2-.6-.2-1-.6-1.3-1a3 3 0 0 1-.4-1.7v-10Zm6 12.8v-10.4h2.7v1.8h.1c.2-.6.6-1 1-1.4.4-.3 1-.5 1.5-.5a4.3 4.3 0 0 1 1 0v2.6h-.6a5 5 0 0 0-.7-.1c-.4 0-.8 0-1.1.3a2 2 0 0 0-1 1.8v5.9h-3Zm9.6.2c-.6 0-1.2-.1-1.7-.3-.6-.3-1-.6-1.3-1a3 3 0 0 1-.4-1.8c0-.6 0-1 .3-1.4.2-.4.5-.8.9-1l1.2-.5 1.5-.3a37.5 37.5 0 0 0 2.2-.4c.2-.1.3-.3.3-.5 0-.5-.1-.8-.4-1-.3-.3-.7-.4-1.1-.4a2 2 0 0 0-1.3.3l-.6.9-2.6-.2a3.6 3.6 0 0 1 2.3-2.7 6.6 6.6 0 0 1 3.8-.2c.5.1 1 .3 1.4.6a3 3 0 0 1 1.4 2.7v7h-2.8v-1.4a3 3 0 0 1-1.7 1.4l-1.4.2Zm.8-2c.5 0 .8 0 1.2-.2l.7-.7c.2-.3.3-.6.3-1v-1.1l-.4.2a6.5 6.5 0 0 1-1 .2 74.3 74.3 0 0 0-1.5.3l-.6.4a1 1 0 0 0-.2.7c0 .4.2.7.5 1l1 .2Zm9.4-12V169H275v-13.8h3Zm9 14a4 4 0 0 1-2.1-.6c-.7-.4-1.2-1-1.5-1.8a7 7 0 0 1-.6-3c0-1.2.2-2.1.6-3 .4-.7.9-1.3 1.5-1.7a3.9 3.9 0 0 1 3.6-.3c.3.2.7.4.9.7l.5.9h.1v-5.2h2.9V169h-2.8v-1.7h-.2c0 .3-.3.6-.5.9l-1 .7c-.4.2-.8.3-1.4.3Zm1-2.3c.4 0 .8-.1 1-.4.4-.3.7-.6.8-1 .2-.5.3-1 .3-1.7 0-.6 0-1.1-.3-1.6-.1-.4-.4-.8-.7-1-.3-.3-.7-.4-1.2-.4s-.9.1-1.2.4c-.3.2-.5.6-.7 1a4.7 4.7 0 0 0 0 3.2l.7 1.1c.3.3.7.4 1.2.4Zm9.5 2.3c-.7 0-1.3-.1-1.8-.3-.5-.3-1-.6-1.2-1a3 3 0 0 1-.5-1.8 2.6 2.6 0 0 1 1.2-2.4l1.2-.5 1.5-.3a37.4 37.4 0 0 0 2.3-.4l.2-.5c0-.5-.1-.8-.4-1-.2-.3-.6-.4-1.1-.4a2 2 0 0 0-1.3.3l-.6.9-2.6-.2a3.6 3.6 0 0 1 2.3-2.7 6.6 6.6 0 0 1 3.8-.2c.6.1 1 .3 1.5.6a3 3 0 0 1 1.3 2.7v7h-2.7v-1.4h-.1a3 3 0 0 1-1.7 1.4l-1.3.2Zm.8-2c.4 0 .8 0 1.1-.2l.8-.7c.2-.3.2-.6.2-1v-1.1l-.3.2a6.5 6.5 0 0 1-1.1.2 84.7 84.7 0 0 0-1.4.3l-.6.4a1 1 0 0 0-.2.7c0 .4.1.7.4 1l1 .2Zm12-8.6v2.2h-6.3v-2.2h6.3Zm-4.8-2.4h2.8v9.6c0 .3 0 .5.2.6 0 .2.1.3.3.3l.5.1h.7l.5 2a7.8 7.8 0 0 1-1.6.3c-.7 0-1.3 0-1.8-.2s-1-.6-1.2-1a3 3 0 0 1-.4-1.7v-10Zm8.8 13c-.6 0-1.2-.1-1.7-.3-.5-.3-1-.6-1.2-1a3 3 0 0 1-.5-1.8 2.6 2.6 0 0 1 1.2-2.4l1.2-.5 1.5-.3a37.5 37.5 0 0 0 2.3-.4l.2-.5c0-.5-.1-.8-.4-1-.3-.3-.6-.4-1.1-.4a2 2 0 0 0-1.3.3l-.6.9-2.6-.2a3.6 3.6 0 0 1 2.3-2.7 6.6 6.6 0 0 1 3.8-.2c.6.1 1 .3 1.4.6a3 3 0 0 1 1.4 2.7v7h-2.7v-1.4h-.1a3 3 0 0 1-1.7 1.4l-1.4.2Zm.9-2c.4 0 .8 0 1-.2.4-.2.7-.4.9-.7l.2-1v-1.1l-.3.2a6.5 6.5 0 0 1-1.1.2 74.3 74.3 0 0 0-1.5.3l-.5.4a1 1 0 0 0-.2.7c0 .4 0 .7.4 1l1 .2Zm18.7-5.6-2.6.2c0-.3-.2-.5-.3-.7l-.6-.4a2 2 0 0 0-.9-.2c-.4 0-.8.1-1 .3-.4.2-.5.5-.5.8 0 .2 0 .4.3.6.2.2.5.3 1 .4l1.9.4c1 .2 1.7.5 2.2 1 .5.4.8 1 .8 1.8 0 .7-.3 1.3-.6 1.8-.4.5-1 .9-1.7 1.2-.7.3-1.5.4-2.4.4-1.3 0-2.4-.3-3.2-.9a3.3 3.3 0 0 1-1.5-2.3l2.9-.2c0 .5.3.8.6 1 .3.2.7.3 1.2.3s1 0 1.3-.3c.3-.2.4-.4.4-.7 0-.3 0-.5-.3-.7l-1-.4-1.8-.3c-1-.2-1.8-.6-2.3-1-.4-.6-.7-1.2-.7-2 0-.6.2-1.2.5-1.7.4-.5 1-.8 1.6-1.1.6-.3 1.4-.4 2.3-.4 1.3 0 2.3.3 3 .8.8.6 1.3 1.3 1.4 2.3Zm6.8-3v2.2h-6.2v-2.2h6.2Zm-4.8-2.4h2.9v10.2l.4.3.5.1h.7l.5 2a7.9 7.9 0 0 1-1.6.3c-.7 0-1.3 0-1.8-.2s-.9-.6-1.2-1a3 3 0 0 1-.4-1.7v-10Zm10.5 13c-1 0-2-.2-2.7-.7-.8-.4-1.4-1-1.8-1.8a6 6 0 0 1-.6-2.8c0-1.1.2-2 .6-2.8.4-.9 1-1.5 1.8-2 .7-.4 1.6-.6 2.7-.6 1 0 2 .2 2.7.7.8.4 1.4 1 1.8 1.9.4.8.6 1.7.6 2.8 0 1-.2 2-.6 2.8-.4.8-1 1.4-1.8 1.8-.8.5-1.7.7-2.7.7Zm0-2.2c.5 0 .9-.2 1.2-.4.3-.3.6-.7.7-1.1.2-.5.3-1 .3-1.7 0-.6-.1-1.1-.3-1.6-.1-.4-.4-.8-.7-1-.3-.4-.7-.5-1.2-.5s-.9.1-1.2.4c-.3.3-.6.7-.7 1.1a5 5 0 0 0-.3 1.6c0 .6.1 1.2.3 1.7.1.4.4.8.7 1 .3.3.7.5 1.2.5Zm6.2 2v-10.4h2.8v1.8h.1c.2-.6.5-1 1-1.4.4-.3 1-.5 1.5-.5a4.4 4.4 0 0 1 .9 0v2.6h-.6a5 5 0 0 0-.6-.1c-.4 0-.8 0-1.2.3a2 2 0 0 0-1 1.8v5.9h-2.9Zm11.3.2c-1.1 0-2-.2-2.8-.6-.8-.5-1.3-1.1-1.8-1.9-.4-.8-.6-1.7-.6-2.8 0-1.1.2-2 .6-2.8.5-.8 1-1.5 1.8-2 .7-.4 1.6-.6 2.6-.6.7 0 1.4.1 2 .3a4.2 4.2 0 0 1 2.5 2.7c.3.6.4 1.4.4 2.3v.8h-8.7v-1.8h6c0-.4 0-.8-.3-1.1a2 2 0 0 0-.7-.8c-.3-.2-.7-.3-1.1-.3a2.2 2.2 0 0 0-2 1.2l-.2 1v1.8c0 .5 0 1 .2 1.3.2.4.5.7.9.9.3.2.7.3 1.2.3.3 0 .6 0 .9-.2.3 0 .5-.2.7-.4l.4-.6 2.7.1c-.2.7-.5 1.2-.9 1.7s-1 .8-1.6 1.1a6 6 0 0 1-2.2.4Z"/><path fill="#fff" d="M203.6 158c0 1.9-3 3.4-6.7 3.4s-6.7-1.5-6.7-3.4c0-1.8 3-3.3 6.7-3.3s6.7 1.5 6.7 3.3Z"/><path fill="#fff" d="M190.2 158v8.3c0 1.9 3 3.3 6.7 3.3s6.7-1.4 6.7-3.3V158"/><path fill="#323232" fill-rule="evenodd" d="M192.6 156.1c-1.1.6-1.6 1.3-1.6 1.8s.5 1.2 1.6 1.8c1 .5 2.6.9 4.3.9 1.7 0 3.2-.4 4.3-1 1.1-.5 1.6-1.2 1.6-1.7 0-.6-.5-1.2-1.6-1.8-1-.5-2.6-.9-4.3-.9-1.7 0-3.2.4-4.3 1Zm10.2 4-1 .7c-1.3.6-3 1-4.9 1a11 11 0 0 1-4.8-1c-.4-.2-.8-.4-1-.7v1.9c0 .5.4 1.2 1.5 1.8 1 .5 2.6.9 4.3.9 1.7 0 3.2-.4 4.3-1 1.1-.5 1.6-1.2 1.6-1.7v-1.9Zm1.2-2.2c0-1.3-1-2.2-2.2-2.9-1.3-.6-3-1-4.9-1a11 11 0 0 0-4.8 1c-1.3.7-2.3 1.6-2.3 2.9v8.2c0 1.3 1 2.2 2.3 2.9 1.2.6 3 1 4.8 1a11 11 0 0 0 4.9-1c1.2-.7 2.2-1.6 2.2-2.9v-8.2Zm-1.2 6.3-1 .7c-1.3.6-3 1-4.9 1a11 11 0 0 1-4.8-1c-.4-.2-.8-.4-1-.7v1.9c0 .6.4 1.2 1.5 1.8 1 .5 2.6.9 4.3.9 1.7 0 3.2-.4 4.3-1 1.1-.5 1.6-1.2 1.6-1.7v-1.9Z" clip-rule="evenodd"/><rect width="97" height="24" x="425" y="36" fill="#1F1F1F" rx="12"/><path fill="#fff" d="M446.4 45.5h-1.2a2.6 2.6 0 0 0-1-1.6l-.9-.4a3.4 3.4 0 0 0-2.6.3c-.5.3-1 .8-1.2 1.4-.3.6-.5 1.3-.5 2.2 0 .9.2 1.6.5 2.2.3.6.7 1.1 1.2 1.4.5.3 1 .5 1.6.5.4 0 .7 0 1-.2.3 0 .6-.2.9-.4a2.6 2.6 0 0 0 1-1.6h1.2c0 .5-.2 1-.5 1.4a3.8 3.8 0 0 1-2.1 1.7 4.6 4.6 0 0 1-3.8-.4c-.7-.4-1.2-1-1.6-1.8-.4-.8-.6-1.7-.6-2.8 0-1 .2-2 .6-2.8.4-.8 1-1.4 1.6-1.8.7-.4 1.5-.6 2.3-.6a4 4 0 0 1 3.6 2c.3.3.4.8.5 1.3Zm4.8 7.2c-.8 0-1.4-.2-2-.5-.5-.4-.9-.8-1.2-1.4-.2-.6-.4-1.3-.4-2 0-.8.2-1.5.4-2.1.3-.6.7-1 1.3-1.4.5-.4 1-.5 1.8-.5.4 0 .8 0 1.1.2a3 3 0 0 1 1.9 1.8l.2 1.8v.5h-5.8v-1h4.6c0-.5 0-.9-.2-1.2a2 2 0 0 0-1.8-1c-.5 0-1 0-1.3.3-.3.2-.6.5-.7.9-.2.3-.3.7-.3 1.1v.7c0 .6 0 1 .3 1.5.2.4.5.7.8.9.4.2.8.3 1.3.3l.8-.1.7-.4.4-.7 1.1.3c-.1.4-.3.8-.6 1a3 3 0 0 1-1 .7c-.4.2-.9.3-1.4.3Zm5.8-4.8v4.6h-1.2v-7.6h1.2V46l.9-1c.4-.2.8-.3 1.4-.3.5 0 1 0 1.4.3.4.2.7.5.9 1 .2.4.3.9.3 1.5v4.9h-1.2v-4.8c0-.6-.1-1-.4-1.4-.4-.3-.8-.5-1.3-.5a2 2 0 0 0-1 .3c-.3.1-.6.4-.7.7-.2.3-.3.7-.3 1.1Zm10-3v1h-3.9v-1h4Zm-2.7-1.9h1.1v7.3l.2.8.4.3h1l.2 1a2.4 2.4 0 0 1-.9.2c-.3 0-.6 0-1-.2a2 2 0 0 1-.7-.7c-.2-.3-.3-.6-.3-1V43Zm4.3 9.5v-7.6h1.1V46a2.2 2.2 0 0 1 2-1.3 13 13 0 0 1 .7 0V46a3.3 3.3 0 0 0-.7-.1 2 2 0 0 0-1 .2l-.7.6c-.2.3-.3.6-.3 1v4.8h-1.1Zm7.1.2c-.4 0-.9-.1-1.3-.3-.4-.2-.7-.4-1-.8-.1-.3-.3-.8-.3-1.3 0-.4.1-.8.3-1l.7-.7 1-.3a11.7 11.7 0 0 1 2.1-.3l.7-.2.2-.4c0-.5-.2-1-.4-1.2-.3-.3-.7-.4-1.2-.4-.6 0-1 .1-1.4.4-.3.2-.5.5-.6.8l-1.1-.4a2.7 2.7 0 0 1 1.8-1.7 4.5 4.5 0 0 1 2 0c.4 0 .7.1 1 .3l.7.8c.2.4.3.9.3 1.5v5h-1.1v-1l-.5.5-.7.5-1.2.2Zm.2-1c.5 0 .9-.2 1.2-.3a1.9 1.9 0 0 0 1-1.7v-1l-.4.1a5.6 5.6 0 0 1-1.2.2 32.5 32.5 0 0 0-1.3.3c-.3 0-.5.2-.7.4a1 1 0 0 0-.2.7c0 .4.2.7.5 1l1.1.2Zm6.4-9.4v10.2H481V42.3h1.2Zm1.8 10.2v-7.6h1.2v7.6h-1.2Zm.6-9-.6-.1a.8.8 0 0 1-.2-.6c0-.2 0-.4.2-.6l.6-.2c.3 0 .5 0 .6.2l.3.6-.3.6-.6.2Zm2.3 9v-.9l4.3-5.6h-4.2v-1.1h5.7v.9l-4.2 5.5v.1h4.4v1.1h-6Zm10.5.2c-.8 0-1.4-.2-2-.5-.5-.4-.9-.8-1.2-1.4-.3-.6-.4-1.3-.4-2 0-.8.1-1.5.4-2.1.3-.6.7-1 1.2-1.4.6-.4 1.2-.5 1.8-.5.4 0 .8 0 1.2.2a3 3 0 0 1 1.8 1.8c.2.5.3 1 .3 1.8v.5h-5.9v-1h4.7c0-.5 0-.9-.2-1.2a2 2 0 0 0-1.9-1c-.4 0-.8 0-1.2.3-.3.2-.6.5-.8.9l-.2 1.1v.7c0 .6 0 1 .3 1.5.2.4.5.7.8.9.4.2.8.3 1.3.3l.8-.1c.3-.1.5-.2.6-.4l.5-.7 1.1.3c-.1.4-.3.8-.6 1a3 3 0 0 1-1 .7l-1.4.3Zm7.5 0a3 3 0 0 1-2.8-1.9 5 5 0 0 1-.4-2.1c0-.8.1-1.5.4-2 .3-.7.6-1.1 1.1-1.5a3 3 0 0 1 1.7-.4c.5 0 1 0 1.2.2l.7.6c.1.2.3.3.3.5h.1v-3.8h1.2v10.2h-1.1v-1.2h-.2l-.3.6-.7.5c-.3.2-.7.3-1.2.3Zm.2-1a2 2 0 0 0 1.2-.5c.3-.2.5-.6.7-1 .2-.4.3-1 .3-1.5 0-.6-.1-1-.3-1.5-.2-.4-.4-.8-.7-1a2 2 0 0 0-1.2-.4 2 2 0 0 0-1.3.4l-.7 1-.3 1.5.3 1.5c.2.4.4.8.7 1 .4.3.8.4 1.3.4ZM642 11h525v355H642z"/><rect width="505" height="333" x="652" y="23" fill="#F5F6F8" stroke="#000" stroke-dasharray="10 5" stroke-width="2" rx="5"/><rect width="135" height="40" x="662" y="297" fill="#82CBEA" rx="20"/><g filter="url(#f)"><circle cx="682" cy="317" r="12" fill="#fff"/></g><path fill="#323232" d="M706.1 324h-4.9v-13.8h5c1.3 0 2.5.3 3.5.8 1 .6 1.8 1.4 2.3 2.4.6 1 .9 2.2.9 3.7 0 1.4-.3 2.7-.9 3.7-.5 1-1.3 1.8-2.3 2.4-1 .5-2.2.8-3.6.8Zm-2-2.5h1.9c.8 0 1.6-.2 2.2-.5a3 3 0 0 0 1.3-1.4 6 6 0 0 0 .4-2.5 6 6 0 0 0-.4-2.5 3 3 0 0 0-1.3-1.5c-.6-.3-1.4-.4-2.2-.4H704v8.8Zm13 2.7c-.6 0-1.2-.1-1.7-.3-.5-.3-1-.6-1.2-1a3 3 0 0 1-.5-1.8 2.6 2.6 0 0 1 1.2-2.4l1.2-.5 1.5-.3a37.5 37.5 0 0 0 2.3-.4l.2-.5c0-.5-.1-.8-.4-1-.2-.3-.6-.4-1.1-.4a2 2 0 0 0-1.2.3c-.4.3-.6.6-.7.9l-2.6-.2a3.6 3.6 0 0 1 2.3-2.7 6.6 6.6 0 0 1 3.8-.2c.6.1 1 .3 1.5.6a3 3 0 0 1 1.3 2.7v7h-2.7v-1.4h-.1a3 3 0 0 1-1.7 1.4l-1.3.2Zm.9-2c.4 0 .8 0 1.1-.2l.8-.7c.2-.3.2-.6.2-1v-1.1l-.3.2a6.5 6.5 0 0 1-1.1.2 74.3 74.3 0 0 0-1.4.3l-.6.4a1 1 0 0 0-.2.7c0 .4.1.7.4 1l1 .2Zm12-8.6v2.2h-6.3v-2.2h6.3Zm-4.8-2.4h2.8v9.6c0 .3 0 .5.2.6 0 .2.1.3.3.3l.5.1h.7l.5 2a7.8 7.8 0 0 1-1.6.3c-.7 0-1.3 0-1.8-.2s-1-.6-1.2-1a3 3 0 0 1-.4-1.7v-10Zm8.9 13c-.7 0-1.3-.1-1.8-.3-.5-.3-1-.6-1.2-1a3 3 0 0 1-.5-1.8 2.6 2.6 0 0 1 1.2-2.4l1.2-.5 1.5-.3a37.3 37.3 0 0 0 2.3-.4l.2-.5c0-.5-.1-.8-.4-1-.3-.3-.6-.4-1.1-.4a2 2 0 0 0-1.3.3l-.6.9-2.6-.2a3.6 3.6 0 0 1 2.3-2.7 6.6 6.6 0 0 1 3.8-.2c.6.1 1 .3 1.5.6a3 3 0 0 1 1.3 2.7v7h-2.7v-1.4h-.1a3 3 0 0 1-1.7 1.4l-1.3.2Zm.8-2c.4 0 .8 0 1.1-.2l.8-.7.2-1v-1.1l-.3.2a6.5 6.5 0 0 1-1.1.2 83.7 83.7 0 0 0-1.4.3l-.6.4a1 1 0 0 0-.2.7c0 .4.1.7.4 1l1 .2Zm18.7-5.6-2.6.2c0-.3-.2-.5-.3-.7l-.6-.4a2 2 0 0 0-.8-.2c-.5 0-.9.1-1.2.3-.3.2-.4.5-.4.8 0 .2 0 .4.3.6.2.2.5.3 1 .4l1.9.4c1 .2 1.7.5 2.2 1 .5.4.8 1 .8 1.8 0 .7-.2 1.3-.6 1.8-.4.5-1 .9-1.7 1.2-.7.3-1.5.4-2.4.4-1.3 0-2.4-.3-3.2-.9a3.3 3.3 0 0 1-1.5-2.3l2.9-.2c0 .5.3.8.6 1 .3.2.7.3 1.2.3s1 0 1.3-.3c.3-.2.4-.4.4-.7 0-.3 0-.5-.3-.7l-1-.4-1.8-.3c-1-.2-1.8-.6-2.3-1-.4-.6-.7-1.2-.7-2 0-.6.2-1.2.6-1.7.3-.5.8-.8 1.5-1.1.6-.3 1.4-.4 2.3-.4 1.3 0 2.3.3 3.1.8.8.6 1.2 1.3 1.3 2.3Zm6 7.6c-1 0-2-.2-2.7-.6-.8-.5-1.4-1.1-1.8-1.9-.4-.8-.6-1.7-.6-2.8 0-1.1.2-2 .6-2.8.4-.8 1-1.5 1.8-2 .7-.4 1.6-.6 2.6-.6.7 0 1.3.1 2 .3a4.2 4.2 0 0 1 2.5 2.7c.3.6.4 1.4.4 2.3v.8h-8.8v-1.8h6c0-.4 0-.8-.2-1.1a2 2 0 0 0-.7-.8c-.4-.2-.7-.3-1.1-.3-.5 0-.9.1-1.2.4-.3.1-.6.4-.8.8-.2.3-.3.7-.3 1v1.8c0 .5.1 1 .3 1.3.2.4.5.7.8.9.4.2.8.3 1.3.3.3 0 .6 0 .9-.2.2 0 .4-.2.6-.4l.5-.6 2.6.1c-.1.7-.4 1.2-.8 1.7s-1 .8-1.6 1.1a6 6 0 0 1-2.3.4Zm11.4-10.6v2.2h-6.2v-2.2h6.2Zm-4.8-2.4h2.9v10.2l.4.3.5.1h.7l.5 2a7.8 7.8 0 0 1-1.6.3c-.6 0-1.3 0-1.8-.2s-.9-.6-1.2-1a3 3 0 0 1-.4-1.7v-10Zm15.5-1V324h-2.9v-11l-3.2 2v-2.7l3.4-2.1h2.7Z"/><path fill="#fff" d="M688.6 313c0 1.9-3 3.4-6.7 3.4s-6.7-1.5-6.7-3.4c0-1.8 3-3.3 6.7-3.3s6.7 1.5 6.7 3.3Z"/><path fill="#fff" d="M675.2 313v8.3c0 1.9 3 3.3 6.7 3.3s6.7-1.4 6.7-3.3V313"/><path fill="#323232" fill-rule="evenodd" d="M677.6 311.1c-1.1.6-1.6 1.3-1.6 1.8s.5 1.2 1.6 1.8c1 .5 2.6.9 4.3.9 1.7 0 3.2-.4 4.3-1 1.1-.5 1.6-1.2 1.6-1.7s-.5-1.2-1.6-1.8c-1-.5-2.6-.9-4.3-.9-1.7 0-3.2.4-4.3 1Zm10.2 4-1 .7c-1.3.6-3 1-4.9 1a11 11 0 0 1-4.8-1c-.4-.2-.8-.4-1-.7v1.9c0 .5.4 1.2 1.5 1.8 1 .5 2.6.9 4.3.9 1.7 0 3.2-.4 4.3-1 1.1-.5 1.6-1.2 1.6-1.7v-1.9Zm1.2-2.2c0-1.3-1-2.2-2.2-2.9-1.3-.6-3-1-4.9-1a11 11 0 0 0-4.8 1c-1.3.7-2.3 1.6-2.3 2.9v8.2c0 1.3 1 2.2 2.3 2.9 1.2.6 3 1 4.8 1a11 11 0 0 0 4.9-1c1.2-.7 2.2-1.6 2.2-2.9v-8.2Zm-1.2 6.3-1 .7c-1.3.6-3 1-4.9 1a11 11 0 0 1-4.8-1c-.4-.2-.8-.4-1-.7v1.9c0 .5.4 1.2 1.5 1.8 1 .5 2.6.9 4.3.9 1.7 0 3.2-.4 4.3-1 1.1-.5 1.6-1.2 1.6-1.7v-1.9Z" clip-rule="evenodd"/><rect width="135" height="40" x="837" y="297" fill="#F6EC73" rx="20"/><g filter="url(#g)"><circle cx="857" cy="317" r="12" fill="#fff"/></g><path fill="#323232" d="M881.1 324h-4.9v-13.8h5c1.3 0 2.5.3 3.5.8 1 .6 1.8 1.4 2.3 2.4.6 1 .9 2.2.9 3.7 0 1.4-.3 2.7-.9 3.7-.5 1-1.3 1.8-2.3 2.4-1 .5-2.2.8-3.6.8Zm-2-2.5h1.9c.8 0 1.6-.2 2.2-.5a3 3 0 0 0 1.3-1.4 6 6 0 0 0 .4-2.5 6 6 0 0 0-.4-2.5 3 3 0 0 0-1.3-1.5c-.6-.3-1.4-.4-2.2-.4H879v8.8Zm13 2.7c-.6 0-1.2-.1-1.7-.3-.5-.3-1-.6-1.2-1a3 3 0 0 1-.5-1.8 2.6 2.6 0 0 1 1.2-2.4l1.2-.5 1.5-.3a37.5 37.5 0 0 0 2.3-.4l.2-.5c0-.5-.1-.8-.4-1-.2-.3-.6-.4-1.1-.4a2 2 0 0 0-1.2.3c-.4.3-.6.6-.7.9l-2.6-.2a3.6 3.6 0 0 1 2.3-2.7 6.6 6.6 0 0 1 3.8-.2c.6.1 1 .3 1.5.6a3 3 0 0 1 1.3 2.7v7h-2.7v-1.4h-.1a3 3 0 0 1-1.7 1.4l-1.3.2Zm.9-2c.4 0 .8 0 1.1-.2l.8-.7c.2-.3.2-.6.2-1v-1.1l-.3.2a6.5 6.5 0 0 1-1.1.2 74.3 74.3 0 0 0-1.4.3l-.6.4a1 1 0 0 0-.2.7c0 .4.1.7.4 1l1 .2Zm12-8.6v2.2h-6.3v-2.2h6.3Zm-4.8-2.4h2.8v9.6c0 .3 0 .5.2.6 0 .2.1.3.3.3l.5.1h.7l.5 2a7.8 7.8 0 0 1-1.6.3c-.7 0-1.3 0-1.8-.2s-1-.6-1.2-1a3 3 0 0 1-.4-1.7v-10Zm8.9 13c-.7 0-1.3-.1-1.8-.3-.5-.3-1-.6-1.2-1a3 3 0 0 1-.5-1.8 2.6 2.6 0 0 1 1.2-2.4l1.2-.5 1.5-.3a37.3 37.3 0 0 0 2.3-.4l.2-.5c0-.5-.1-.8-.4-1-.3-.3-.6-.4-1.1-.4a2 2 0 0 0-1.3.3l-.6.9-2.6-.2a3.6 3.6 0 0 1 2.3-2.7 6.6 6.6 0 0 1 3.8-.2c.6.1 1 .3 1.5.6a3 3 0 0 1 1.3 2.7v7h-2.7v-1.4h-.1a3 3 0 0 1-1.7 1.4l-1.3.2Zm.8-2c.4 0 .8 0 1.1-.2l.8-.7.2-1v-1.1l-.3.2a6.5 6.5 0 0 1-1.1.2 83.7 83.7 0 0 0-1.4.3l-.6.4a1 1 0 0 0-.2.7c0 .4.1.7.4 1l1 .2Zm18.7-5.6-2.6.2c0-.3-.2-.5-.3-.7l-.6-.4a2 2 0 0 0-.8-.2c-.5 0-.9.1-1.2.3-.3.2-.4.5-.4.8 0 .2 0 .4.3.6.2.2.5.3 1 .4l1.9.4c1 .2 1.7.5 2.2 1 .5.4.8 1 .8 1.8 0 .7-.2 1.3-.6 1.8-.4.5-1 .9-1.7 1.2-.7.3-1.5.4-2.4.4-1.3 0-2.4-.3-3.2-.9a3.3 3.3 0 0 1-1.5-2.3l2.9-.2c0 .5.3.8.6 1 .3.2.7.3 1.2.3s1 0 1.3-.3c.3-.2.4-.4.4-.7 0-.3 0-.5-.3-.7l-1-.4-1.8-.3c-1-.2-1.8-.6-2.3-1-.4-.6-.7-1.2-.7-2 0-.6.2-1.2.6-1.7.3-.5.8-.8 1.5-1.1.6-.3 1.4-.4 2.3-.4 1.3 0 2.3.3 3.1.8.8.6 1.2 1.3 1.3 2.3Zm6 7.6c-1 0-2-.2-2.7-.6-.8-.5-1.4-1.1-1.8-1.9-.4-.8-.6-1.7-.6-2.8 0-1.1.2-2 .6-2.8.4-.8 1-1.5 1.8-2 .7-.4 1.6-.6 2.6-.6.7 0 1.3.1 2 .3a4.2 4.2 0 0 1 2.5 2.7c.3.6.4 1.4.4 2.3v.8h-8.8v-1.8h6c0-.4 0-.8-.2-1.1a2 2 0 0 0-.7-.8c-.4-.2-.7-.3-1.1-.3-.5 0-.9.1-1.2.4-.3.1-.6.4-.8.8-.2.3-.3.7-.3 1v1.8c0 .5.1 1 .3 1.3.2.4.5.7.8.9.4.2.8.3 1.3.3.3 0 .6 0 .9-.2.2 0 .4-.2.6-.4l.5-.6 2.6.1c-.1.7-.4 1.2-.8 1.7s-1 .8-1.6 1.1a6 6 0 0 1-2.3.4Zm11.4-10.6v2.2h-6.2v-2.2h6.2Zm-4.8-2.4h2.9v10.2l.4.3.5.1h.7l.5 2a7.8 7.8 0 0 1-1.6.3c-.6 0-1.3 0-1.8-.2s-.9-.6-1.2-1a3 3 0 0 1-.4-1.7v-10Zm9.5 12.8v-2.1l5-4.6 1-1 .7-1 .2-1c0-.4-.1-.8-.3-1-.2-.4-.4-.6-.7-.8l-1.1-.2c-.5 0-.8 0-1.1.3-.4.1-.6.4-.8.7l-.2 1.1h-2.8a4.1 4.1 0 0 1 2.3-3.9c.8-.3 1.6-.5 2.6-.5s1.8.2 2.6.5c.7.4 1.3.8 1.7 1.5.4.6.6 1.3.6 2 0 .6-.1 1.1-.3 1.6l-1 1.7a25 25 0 0 1-2.3 2.2l-2 2v.1h5.8v2.4h-9.9Z"/><path fill="#fff" d="M863.6 313c0 1.9-3 3.4-6.7 3.4s-6.7-1.5-6.7-3.4c0-1.8 3-3.3 6.7-3.3s6.7 1.5 6.7 3.3Z"/><path fill="#fff" d="M850.2 313v8.3c0 1.9 3 3.3 6.7 3.3s6.7-1.4 6.7-3.3V313"/><path fill="#323232" fill-rule="evenodd" d="M852.6 311.1c-1.1.6-1.6 1.3-1.6 1.8s.5 1.2 1.6 1.8c1 .5 2.6.9 4.3.9 1.7 0 3.2-.4 4.3-1 1.1-.5 1.6-1.2 1.6-1.7s-.5-1.2-1.6-1.8c-1-.5-2.6-.9-4.3-.9-1.7 0-3.2.4-4.3 1Zm10.2 4-1 .7c-1.3.6-3 1-4.9 1a11 11 0 0 1-4.8-1c-.4-.2-.8-.4-1-.7v1.9c0 .5.4 1.2 1.5 1.8 1 .5 2.6.9 4.3.9 1.7 0 3.2-.4 4.3-1 1.1-.5 1.6-1.2 1.6-1.7v-1.9Zm1.2-2.2c0-1.3-1-2.2-2.2-2.9-1.3-.6-3-1-4.9-1a11 11 0 0 0-4.8 1c-1.3.7-2.3 1.6-2.3 2.9v8.2c0 1.3 1 2.2 2.3 2.9 1.2.6 3 1 4.8 1a11 11 0 0 0 4.9-1c1.2-.7 2.2-1.6 2.2-2.9v-8.2Zm-1.2 6.3-1 .7c-1.3.6-3 1-4.9 1a11 11 0 0 1-4.8-1c-.4-.2-.8-.4-1-.7v1.9c0 .5.4 1.2 1.5 1.8 1 .5 2.6.9 4.3.9 1.7 0 3.2-.4 4.3-1 1.1-.5 1.6-1.2 1.6-1.7v-1.9Z" clip-rule="evenodd"/><rect width="135" height="40" x="1012" y="297" fill="#80E6BB" rx="20"/><g filter="url(#h)"><circle cx="1032" cy="317" r="12" fill="#fff"/></g><path fill="#323232" d="M1056.1 324h-4.9v-13.8h5c1.3 0 2.5.3 3.5.8 1 .6 1.8 1.4 2.3 2.4.6 1 .9 2.2.9 3.7 0 1.4-.3 2.7-.9 3.7-.5 1-1.3 1.8-2.3 2.4-1 .5-2.2.8-3.6.8Zm-2-2.5h1.9c.8 0 1.6-.2 2.2-.5a3 3 0 0 0 1.3-1.4 6 6 0 0 0 .5-2.5 6 6 0 0 0-.5-2.5c-.3-.7-.8-1.2-1.3-1.5-.6-.3-1.4-.4-2.2-.4h-1.9v8.8Zm13 2.7c-.6 0-1.2-.1-1.7-.3-.5-.3-1-.6-1.2-1a3 3 0 0 1-.5-1.8c0-.6.1-1 .3-1.4.3-.4.5-.8 1-1a4 4 0 0 1 1.2-.5c.4-.2.9-.2 1.4-.3a35.3 35.3 0 0 0 2.3-.4l.2-.5c0-.5-.1-.8-.4-1-.2-.3-.6-.4-1.1-.4a2 2 0 0 0-1.3.3c-.3.3-.5.6-.5.9l-2.7-.2a3.6 3.6 0 0 1 2.3-2.7 6.7 6.7 0 0 1 3.8-.2c.6.1 1 .3 1.5.6l1 1.1c.2.5.3 1 .3 1.6v7h-2.7v-1.4h-.1a2.8 2.8 0 0 1-1.7 1.4l-1.3.2Zm.9-2c.4 0 .8 0 1.1-.2l.8-.7c.2-.3.3-.6.3-1v-1.1l-.4.2a8 8 0 0 1-1.1.2h-.5l-1 .3-.5.4a1 1 0 0 0-.2.7c0 .4.1.7.4 1l1 .2Zm12-8.6v2.2h-6.3v-2.2h6.3Zm-4.8-2.4h2.8v9.6c0 .3 0 .5.2.6 0 .2.1.3.3.3l.5.1h.7l.5 2a7.2 7.2 0 0 1-1.6.3c-.7 0-1.3 0-1.8-.2s-1-.6-1.2-1a3 3 0 0 1-.4-1.7v-10Zm8.8 13c-.6 0-1.2-.1-1.7-.3-.5-.3-1-.6-1.2-1a3 3 0 0 1-.5-1.8 2.6 2.6 0 0 1 1.2-2.4l1.2-.5 1.5-.3a36.2 36.2 0 0 0 2.3-.4l.2-.5c0-.5-.1-.8-.4-1-.3-.3-.6-.4-1.1-.4a2 2 0 0 0-1.3.3l-.6.9-2.6-.2a3.6 3.6 0 0 1 2.3-2.7 6.6 6.6 0 0 1 3.8-.2c.6.1 1 .3 1.5.6l1 1.1c.2.5.3 1 .3 1.6v7h-2.7v-1.4h-.1a3 3 0 0 1-1.7 1.4l-1.4.2Zm.9-2c.4 0 .8 0 1-.2.4-.2.7-.4.9-.7l.2-1v-1.1l-.3.2a5.7 5.7 0 0 1-1.1.2h-.6l-.8.3-.6.4a1 1 0 0 0-.2.7c0 .4.1.7.4 1l1 .2Zm18.7-5.6-2.6.2c0-.3-.2-.5-.3-.7l-.6-.4a2 2 0 0 0-.8-.2 2 2 0 0 0-1.2.3c-.3.2-.4.5-.4.8 0 .2 0 .4.3.6.2.2.5.3 1 .4l1.9.4c1 .2 1.7.5 2.2 1 .5.4.8 1 .8 1.8 0 .7-.3 1.3-.7 1.8-.3.5-.9.9-1.6 1.2-.7.3-1.5.4-2.4.4-1.3 0-2.4-.3-3.2-.9a3.3 3.3 0 0 1-1.5-2.3l2.9-.2c0 .5.3.8.6 1 .3.2.7.3 1.3.3.5 0 .9 0 1.2-.3.3-.2.4-.4.4-.7 0-.3 0-.5-.3-.7l-1-.4-1.8-.3c-1-.2-1.8-.6-2.3-1-.4-.6-.7-1.2-.7-2 0-.6.2-1.2.5-1.7.4-.5 1-.8 1.6-1.1.6-.3 1.4-.4 2.3-.4 1.3 0 2.3.3 3.1.8.8.6 1.2 1.3 1.3 2.3Zm6 7.6c-1 0-2-.2-2.7-.6-.8-.5-1.4-1.1-1.8-1.9a6 6 0 0 1-.6-2.8c0-1.1.2-2 .6-2.8.4-.8 1-1.5 1.8-2 .7-.4 1.6-.6 2.6-.6.7 0 1.3.1 2 .3.5.2 1 .6 1.5 1 .4.4.8 1 1 1.7.3.6.4 1.4.4 2.3v.8h-8.8v-1.8h6c0-.4 0-.8-.2-1.1a2 2 0 0 0-.7-.8c-.4-.2-.7-.3-1.1-.3-.5 0-.9.1-1.2.4-.3.1-.6.4-.8.8-.2.3-.3.7-.3 1v1.8c0 .5.1 1 .3 1.3.2.4.5.7.8.9.4.2.8.3 1.3.3.3 0 .6 0 .8-.2a1.8 1.8 0 0 0 1.2-1l2.6.1c-.1.7-.4 1.2-.8 1.7s-1 .8-1.6 1.1a6 6 0 0 1-2.3.4Zm11.4-10.6v2.2h-6.2v-2.2h6.2Zm-4.8-2.4h2.9v10.2l.4.3.5.1a2.6 2.6 0 0 0 .8 0l.4 2a7.6 7.6 0 0 1-1.6.3c-.6 0-1.3 0-1.8-.2s-.9-.6-1.2-1a3 3 0 0 1-.4-1.7v-10Zm14.6 13c-1 0-1.9-.2-2.6-.5-.8-.4-1.5-.9-1.9-1.5-.5-.6-.7-1.3-.7-2.1h3c0 .3 0 .6.3.9l.8.6 1.1.2c.5 0 .9-.1 1.2-.3.4-.1.6-.3.8-.6.2-.3.3-.6.3-1 0-.3 0-.7-.3-1a2 2 0 0 0-.9-.6c-.3-.2-.8-.3-1.3-.3h-1.3V316h1.3c.4 0 .8 0 1.2-.2l.8-.7.2-1c0-.3 0-.6-.2-.8l-.7-.7-1-.2c-.4 0-.8 0-1.1.2a2 2 0 0 0-.8.6c-.2.3-.3.6-.3 1h-2.8c0-.9.2-1.6.7-2.2.4-.6 1-1 1.7-1.4a6 6 0 0 1 2.6-.5c1 0 1.8.2 2.5.5.7.4 1.3.8 1.6 1.4.5.6.7 1.3.7 2 0 .8-.3 1.4-.8 2-.5.4-1 .8-1.9 1 1 .1 1.8.5 2.4 1 .5.6.8 1.4.8 2.2 0 .8-.3 1.5-.7 2.1-.5.6-1.1 1.1-1.9 1.5-.8.3-1.7.5-2.8.5Z"/><path fill="#fff" d="M1038.6 313c0 1.9-3 3.4-6.7 3.4s-6.7-1.5-6.7-3.4c0-1.8 3-3.3 6.7-3.3s6.7 1.5 6.7 3.3Z"/><path fill="#fff" d="M1025.2 313v8.3c0 1.9 3 3.3 6.7 3.3s6.7-1.4 6.7-3.3V313"/><path fill="#323232" fill-rule="evenodd" d="M1027.6 311.1c-1.1.6-1.6 1.3-1.6 1.8s.5 1.2 1.6 1.8c1 .5 2.6.9 4.3.9 1.7 0 3.3-.4 4.3-1 1.1-.5 1.6-1.2 1.6-1.7s-.5-1.2-1.6-1.8c-1-.5-2.6-.9-4.3-.9-1.7 0-3.2.4-4.3 1Zm10.2 4-1 .7c-1.3.6-3 1-4.9 1a11 11 0 0 1-4.9-1l-1-.7v1.9c0 .5.5 1.2 1.6 1.8 1 .5 2.6.9 4.3.9 1.7 0 3.3-.4 4.3-1 1.1-.5 1.6-1.2 1.6-1.7v-1.9Zm1.2-2.2c0-1.3-1-2.2-2.2-2.9-1.3-.6-3-1-4.9-1a11 11 0 0 0-4.9 1c-1.2.7-2.2 1.6-2.2 2.9v8.2c0 1.3 1 2.2 2.3 2.9 1.2.6 3 1 4.8 1a11 11 0 0 0 4.9-1c1.2-.7 2.2-1.6 2.2-2.9v-8.2Zm-1.2 6.3-1 .7c-1.3.6-3 1-4.9 1a11 11 0 0 1-4.9-1l-1-.7v1.9c0 .5.5 1.2 1.6 1.8 1 .5 2.6.9 4.3.9 1.7 0 3.3-.4 4.3-1 1.1-.5 1.6-1.2 1.6-1.7v-1.9Z" clip-rule="evenodd"/><path stroke="#000" stroke-width="2" d="M903 267.5V96M728 271v-72c0-11 9-20 20-20h154M1079 271v-72c0-11-9-20-20-20H904"/><rect width="255" height="40" x="775" y="75" fill="#fff" rx="20"/><g filter="url(#i)"><circle cx="795" cy="95" r="12" fill="#fff"/></g><path fill="#fff" d="M796 91a1.8 1.8 0 1 0 0-3.5 1.8 1.8 0 0 0 0 3.5Z"/><path fill="#323232" fill-rule="evenodd" d="M796 87.9a1.3 1.3 0 1 0 0 2.6 1.3 1.3 0 0 0 0-2.6Zm-2.2 1.3a2.2 2.2 0 1 1 4.4 0 2.2 2.2 0 0 1-4.4 0Z" clip-rule="evenodd"/><path fill="#fff" d="M801.8 97a1.8 1.8 0 1 0 0-3.5 1.8 1.8 0 0 0 0 3.5Z"/><path fill="#323232" fill-rule="evenodd" d="M801.8 94a1.3 1.3 0 1 0 0 2.6 1.3 1.3 0 0 0 0-2.6Zm-2.2 1.3a2.2 2.2 0 1 1 4.4 0 2.2 2.2 0 0 1-4.4 0Z" clip-rule="evenodd"/><path fill="#fff" d="M796 102.8a1.8 1.8 0 1 0 0-3.6 1.8 1.8 0 0 0 0 3.5Z"/><path fill="#323232" fill-rule="evenodd" d="M796 99.7a1.3 1.3 0 1 0 0 2.6 1.3 1.3 0 0 0 0-2.6Zm-2.2 1.3a2.2 2.2 0 1 1 4.4 0 2.2 2.2 0 0 1-4.4 0Z" clip-rule="evenodd"/><path fill="#fff" d="M790.2 100.2a1.8 1.8 0 1 0 0-3.5 1.8 1.8 0 0 0 0 3.5Z"/><path fill="#323232" fill-rule="evenodd" d="M790.2 97.1a1.3 1.3 0 1 0 0 2.6 1.3 1.3 0 0 0 0-2.6Zm-2.2 1.3a2.2 2.2 0 1 1 4.4 0 2.2 2.2 0 0 1-4.4 0Z" clip-rule="evenodd"/><path fill="#fff" d="M790.2 93.3a1.8 1.8 0 1 0 0-3.5 1.8 1.8 0 0 0 0 3.5Z"/><path fill="#323232" fill-rule="evenodd" d="M790.2 90.3a1.3 1.3 0 1 0 0 2.6 1.3 1.3 0 0 0 0-2.6Zm-2.2 1.3a2.2 2.2 0 1 1 4.4 0 2.2 2.2 0 0 1-4.4 0Z" clip-rule="evenodd"/><path fill="#fff" d="M796 96a1.4 1.4 0 1 0 0-2.8 1.4 1.4 0 0 0 0 2.8Z"/><path fill="#323232" fill-rule="evenodd" d="M796 93.6a1 1 0 1 0 0 2 1 1 0 0 0 0-2Zm-1.8 1a1.9 1.9 0 1 1 3.7 0 1.9 1.9 0 0 1-3.7 0ZM794.5 90l-2.6 1-.3-.7 2.6-1 .3.8ZM800.2 94.4l-3.3-3.6.7-.6 3.3 3.5-.7.7ZM797 99.4l3.4-3 .6.6-3.4 3.1-.6-.7ZM794.6 99.8l-3.8-6.5.8-.5 3.7 6.6-.7.4ZM794 100.8l-2.4-1.1.3-.9 2.6 1.2-.4.8Z" clip-rule="evenodd"/><path fill="#323232" fill-rule="evenodd" d="m795.5 91-4.3 6-.7-.5 4.2-6 .8.4Z" clip-rule="evenodd"/><path fill="#323232" fill-rule="evenodd" d="m794.6 94.3-3-1.7.4-.7 3 1.6-.4.8ZM800 95.4l-2.6-.2v-1l2.7.3v.9ZM795.6 99.2V96h.9v3.2h-1Z" clip-rule="evenodd"/><path fill="#323232" d="M814.2 88.2h3.6l3.8 9.3h.2l3.8-9.3h3.6V102h-2.9v-9l-3.6 9h-2l-3.6-9v9h-2.9V88.2Zm19.5 14c-.6 0-1.2-.1-1.7-.3-.6-.3-1-.6-1.3-1a3 3 0 0 1-.4-1.8c0-.6 0-1 .3-1.4.2-.4.5-.8.9-1l1.2-.5 1.5-.3a37 37 0 0 0 2.2-.4c.2-.1.3-.3.3-.5 0-.5-.1-.8-.4-1-.3-.3-.7-.4-1.1-.4a2 2 0 0 0-1.3.3l-.6.9-2.6-.2a3.6 3.6 0 0 1 2.3-2.7 6.6 6.6 0 0 1 3.8-.2c.5.1 1 .3 1.4.6a3 3 0 0 1 1.4 2.7v7h-2.8v-1.4a3 3 0 0 1-1.7 1.4l-1.4.2Zm.9-2c.4 0 .7 0 1-.2.4-.2.6-.4.8-.7.2-.3.3-.6.3-1v-1.1l-.4.2a6.9 6.9 0 0 1-1 .2 176.4 176.4 0 0 0-1.5.3l-.6.4a1 1 0 0 0-.2.7c0 .4.2.7.5 1l1 .2Zm11.1 2c-1 0-2-.2-2.7-.7-.8-.4-1.4-1-1.8-1.9-.4-.8-.6-1.7-.6-2.7 0-1.1.2-2 .6-2.8.4-.8 1-1.5 1.8-2 .8-.4 1.7-.6 2.7-.6 1 0 1.7.2 2.4.5a4 4 0 0 1 1.6 1.4c.4.6.6 1.3.6 2h-2.7c0-.4-.2-.9-.6-1.2-.3-.3-.7-.5-1.2-.5a2 2 0 0 0-1.2.4c-.3.2-.6.6-.8 1-.2.5-.3 1-.3 1.7s.1 1.2.3 1.7c.2.5.5.8.8 1 .3.3.7.4 1.2.4.3 0 .6 0 .8-.2.3-.1.5-.3.7-.6.2-.2.3-.5.3-.9h2.7c0 .8-.2 1.5-.6 2-.4.7-1 1.2-1.6 1.5-.7.3-1.5.5-2.4.5Zm8.6-6.2v6h-2.9V88.2h2.8v5.3h.1c.3-.6.7-1.1 1.2-1.5.5-.3 1.1-.5 2-.5.7 0 1.3.2 1.8.5.6.3 1 .7 1.3 1.3.3.6.4 1.3.4 2.1v6.6h-2.9v-6c0-.7-.1-1.2-.4-1.6-.4-.3-.8-.5-1.4-.5-.4 0-.7 0-1 .2-.3.2-.6.4-.7.8-.2.3-.3.7-.3 1.1Zm8.2 6V91.6h2.9V102h-2.9Zm1.5-11.7c-.5 0-.8-.1-1.1-.4a1.4 1.4 0 0 1 0-2c.3-.4.6-.5 1-.5.5 0 .9.1 1.2.4.3.3.4.6.4 1s-.1.8-.4 1c-.3.4-.7.5-1.1.5Zm5.8 5.7v6H867V91.6h2.8v1.9h.1c.2-.6.6-1.1 1.2-1.5.5-.3 1.1-.5 2-.5.6 0 1.3.2 1.8.5s1 .7 1.2 1.3c.3.6.5 1.3.5 2.1v6.6h-2.9v-6a2 2 0 0 0-.5-1.6c-.3-.3-.7-.5-1.3-.5a2 2 0 0 0-1 .2c-.3.2-.6.4-.7.8-.2.3-.3.7-.3 1.1Zm13 6.2c-1.1 0-2-.2-2.8-.6-.8-.5-1.4-1.1-1.8-1.9-.4-.8-.6-1.7-.6-2.8 0-1.1.2-2 .6-2.8.4-.8 1-1.5 1.7-2 .8-.4 1.7-.6 2.7-.6.7 0 1.3.1 2 .3a4.2 4.2 0 0 1 2.5 2.7c.3.6.4 1.4.4 2.3v.8h-8.8v-1.8h6c0-.4 0-.8-.2-1.1a2 2 0 0 0-.7-.8c-.4-.2-.7-.3-1.1-.3-.5 0-.9.1-1.2.4-.3.1-.6.4-.8.8-.2.3-.3.7-.3 1v1.8c0 .5.1 1 .3 1.3.2.4.5.7.8.9.4.2.8.3 1.3.3.3 0 .6 0 .8-.2.3 0 .5-.2.7-.4l.5-.6 2.6.1c-.1.7-.4 1.2-.8 1.7s-1 .8-1.6 1.1a6 6 0 0 1-2.3.4Zm12.3-14V102h-2.9V88.2h2.9Zm6.3 14c-1.1 0-2-.2-2.8-.6-.7-.5-1.3-1.1-1.8-1.9-.4-.8-.6-1.7-.6-2.8 0-1.1.2-2 .6-2.8.5-.8 1-1.5 1.8-2 .8-.4 1.6-.6 2.7-.6.6 0 1.3.1 1.9.3a4.2 4.2 0 0 1 2.6 2.7c.2.6.3 1.4.3 2.3v.8h-8.7v-1.8h6c0-.4 0-.8-.2-1.1a2 2 0 0 0-.8-.8c-.3-.2-.7-.3-1.1-.3-.4 0-.8.1-1.2.4-.3.1-.6.4-.7.8-.2.3-.3.7-.3 1v1.8c0 .5 0 1 .3 1.3.1.4.4.7.8.9.3.2.7.3 1.2.3.3 0 .6 0 .9-.2.3 0 .5-.2.7-.4l.4-.6 2.7.1c-.2.7-.4 1.2-.9 1.7-.4.5-1 .8-1.6 1.1a6 6 0 0 1-2.2.4Zm8.8 0c-.7 0-1.3-.1-1.8-.3-.5-.3-.9-.6-1.2-1a3 3 0 0 1-.4-1.8c0-.6 0-1 .3-1.4.2-.4.5-.8.8-1l1.3-.5c.4-.2 1-.2 1.5-.3a37.4 37.4 0 0 0 2.2-.4c.2-.1.3-.3.3-.5 0-.5-.2-.8-.4-1-.3-.3-.7-.4-1.2-.4a2 2 0 0 0-1.2.3l-.6.9-2.7-.2a3.6 3.6 0 0 1 2.4-2.7c.6-.3 1.3-.4 2.1-.4.6 0 1.2 0 1.7.2.5.1 1 .3 1.4.6A3 3 0 0 1 916 95v7h-2.7v-1.4a3 3 0 0 1-1.7 1.4l-1.4.2Zm.8-2c.4 0 .8 0 1.1-.2.4-.2.6-.4.8-.7.2-.3.3-.6.3-1v-1.1l-.4.2a6.8 6.8 0 0 1-1 .2 139.7 139.7 0 0 0-1.5.3l-.6.4a1 1 0 0 0-.2.7c0 .4.1.7.4 1l1.1.2Zm6.5 1.8V91.6h2.8v1.8h.1c.2-.6.5-1 1-1.4.4-.3 1-.5 1.5-.5a4.4 4.4 0 0 1 .9 0v2.6h-.6a5 5 0 0 0-.6-.1c-.4 0-.8 0-1.2.3a2 2 0 0 0-1 1.8v5.9h-2.9Zm9.9-6v6h-2.9V91.6h2.8v1.9c.3-.6.7-1.1 1.2-1.5.6-.3 1.2-.5 2-.5.7 0 1.3.2 1.9.5.5.3 1 .7 1.2 1.3.3.6.5 1.3.5 2.1v6.6h-2.9v-6a2 2 0 0 0-.5-1.6 2 2 0 0 0-2.4-.3c-.3.2-.5.4-.7.8l-.2 1.1Zm8.2 6V91.6h2.9V102h-3Zm1.4-11.7c-.4 0-.8-.1-1-.4-.4-.3-.5-.7-.5-1 0-.5.1-.8.4-1 .3-.4.7-.5 1.1-.5.5 0 .8.1 1.1.4.3.3.5.6.5 1s-.2.8-.5 1c-.3.4-.6.5-1 .5ZM943 96v6H940V91.6h2.7v1.9h.2c.2-.6.6-1.1 1.1-1.5.5-.3 1.2-.5 2-.5.7 0 1.3.2 1.9.5.5.3 1 .7 1.2 1.3.3.6.4 1.3.4 2.1v6.6h-2.8v-6a2 2 0 0 0-.5-1.6c-.3-.3-.8-.5-1.4-.5a2 2 0 0 0-1 .2c-.3.2-.5.4-.7.8L943 96Zm12.8 10.1c-1 0-1.7-.1-2.4-.4a4 4 0 0 1-1.5-1c-.4-.5-.7-1-.8-1.5l2.6-.3a1.7 1.7 0 0 0 1.1 1l1 .1c.7 0 1.2-.1 1.6-.4.4-.3.7-.8.7-1.5v-2h-.2a2.7 2.7 0 0 1-1.5 1.5c-.4.2-.9.3-1.4.3-.8 0-1.5-.2-2.2-.6-.6-.4-1-1-1.5-1.7-.3-.7-.5-1.7-.5-2.8 0-1.2.2-2.2.5-3 .4-.7 1-1.3 1.6-1.7a4 4 0 0 1 3.5-.3l1 .7.5.9h.1v-1.8h2.9v10.5c0 .9-.2 1.6-.7 2.2-.4.6-1 1-1.8 1.4a7 7 0 0 1-2.6.4Zm0-6.4a2 2 0 0 0 1.3-.4c.3-.2.5-.5.7-1a4.4 4.4 0 0 0 0-3.1c-.2-.4-.4-.8-.7-1-.4-.3-.8-.4-1.2-.4-.5 0-.9.1-1.2.4-.3.2-.6.6-.7 1-.2.5-.3 1-.3 1.6 0 .6 0 1.1.3 1.5.1.5.4.8.7 1 .3.3.7.4 1.2.4ZM966 102V91.6h2.7v1.9h.1c.2-.6.6-1.1 1.1-1.5a3 3 0 0 1 1.8-.5 3 3 0 0 1 1.8.5c.5.4.9.9 1 1.5h.1c.2-.6.6-1.1 1.2-1.5.5-.3 1.2-.5 2-.5 1 0 1.7.3 2.3 1 .6.5 1 1.4 1 2.5v7h-3v-6.4c0-.6-.1-1-.4-1.3-.3-.3-.7-.4-1.2-.4s-.9.1-1.2.5c-.3.3-.4.7-.4 1.3v6.3H972v-6.5c0-.5-.2-.9-.4-1.2-.3-.3-.7-.4-1.2-.4-.3 0-.6 0-.8.2-.3.2-.5.4-.6.7-.2.3-.3.6-.3 1v6.2H966Zm21.2.2c-1 0-2-.2-2.7-.7-.8-.4-1.4-1-1.8-1.8a6 6 0 0 1-.6-2.8c0-1.1.2-2 .6-2.8.4-.9 1-1.5 1.8-2 .8-.4 1.7-.6 2.7-.6 1 0 2 .2 2.7.7.8.4 1.4 1 1.8 1.9.4.8.6 1.7.6 2.8 0 1-.2 2-.6 2.8-.4.8-1 1.4-1.8 1.8-.7.5-1.6.7-2.7.7Zm0-2.2c.5 0 .9-.2 1.2-.4.3-.3.6-.7.7-1.1.2-.5.3-1 .3-1.7 0-.6-.1-1.1-.3-1.6-.1-.4-.4-.8-.7-1-.3-.4-.7-.5-1.2-.5s-.9.1-1.2.4c-.3.3-.6.7-.7 1.1a5 5 0 0 0-.3 1.6c0 .6.1 1.2.3 1.7.1.4.4.8.7 1 .3.3.7.5 1.2.5Zm10 2.2a4 4 0 0 1-2.1-.6c-.6-.4-1.1-1-1.5-1.8a7 7 0 0 1-.6-3c0-1.2.2-2.1.6-3 .4-.7.9-1.3 1.5-1.7a3.9 3.9 0 0 1 3.6-.3l1 .7.5.9v-5.2h3V102h-2.9v-1.7h-.1l-.6.9c-.2.3-.6.5-1 .7-.3.2-.8.3-1.4.3Zm1-2.3c.4 0 .8-.1 1.1-.4l.8-1 .2-1.7c0-.6 0-1.1-.2-1.6-.2-.4-.4-.8-.8-1-.3-.3-.7-.4-1.2-.4-.4 0-.8.1-1.1.4-.4.2-.6.6-.8 1l-.2 1.6c0 .6 0 1.2.2 1.6.2.5.4.8.8 1.1.3.3.7.4 1.1.4Zm11.3 2.3c-1.1 0-2-.2-2.8-.6-.8-.5-1.4-1.1-1.8-1.9-.4-.8-.6-1.7-.6-2.8 0-1.1.2-2 .6-2.8.5-.8 1-1.5 1.8-2a5 5 0 0 1 2.6-.6c.7 0 1.4.1 2 .3a4.2 4.2 0 0 1 2.6 2.7c.2.6.3 1.4.3 2.3v.8h-8.7v-1.8h6c0-.4 0-.8-.3-1.1a2 2 0 0 0-.7-.8c-.3-.2-.7-.3-1.1-.3-.4 0-.8.1-1.2.4-.3.1-.6.4-.8.8l-.2 1v1.8c0 .5 0 1 .2 1.3.2.4.5.7.9.9.3.2.7.3 1.2.3.3 0 .6 0 .9-.2.3 0 .5-.2.7-.4l.4-.6 2.7.1a3.8 3.8 0 0 1-2.5 2.8 6 6 0 0 1-2.2.4Zm8.7-14V102h-2.9V88.2h3Z"/><rect width="135" height="40" x="662" y="243" fill="#fff" rx="20"/><g filter="url(#j)"><circle cx="682" cy="263" r="12" fill="#82CBEA"/></g><path fill="#fff" d="M683 259a1.8 1.8 0 1 0 0-3.5 1.8 1.8 0 0 0 0 3.5Z"/><path fill="#323232" fill-rule="evenodd" d="M683 255.9a1.3 1.3 0 1 0 0 2.6 1.3 1.3 0 0 0 0-2.6Zm-2.2 1.3a2.2 2.2 0 1 1 4.4 0 2.2 2.2 0 0 1-4.4 0Z" clip-rule="evenodd"/><path fill="#fff" d="M688.8 265a1.8 1.8 0 1 0 0-3.5 1.8 1.8 0 0 0 0 3.5Z"/><path fill="#323232" fill-rule="evenodd" d="M688.8 262a1.3 1.3 0 1 0 0 2.6 1.3 1.3 0 0 0 0-2.6Zm-2.2 1.3a2.2 2.2 0 1 1 4.4 0 2.2 2.2 0 0 1-4.4 0Z" clip-rule="evenodd"/><path fill="#fff" d="M683 270.8a1.8 1.8 0 1 0 0-3.6 1.8 1.8 0 0 0 0 3.6Z"/><path fill="#323232" fill-rule="evenodd" d="M683 267.7a1.3 1.3 0 1 0 0 2.6 1.3 1.3 0 0 0 0-2.6Zm-2.2 1.3a2.2 2.2 0 1 1 4.4 0 2.2 2.2 0 0 1-4.4 0Z" clip-rule="evenodd"/><path fill="#fff" d="M677.2 268.2a1.8 1.8 0 1 0 0-3.5 1.8 1.8 0 0 0 0 3.5Z"/><path fill="#323232" fill-rule="evenodd" d="M677.2 265.1a1.3 1.3 0 1 0 0 2.6 1.3 1.3 0 0 0 0-2.6Zm-2.2 1.3a2.2 2.2 0 1 1 4.4 0 2.2 2.2 0 0 1-4.4 0Z" clip-rule="evenodd"/><path fill="#fff" d="M677.2 261.3a1.8 1.8 0 1 0 0-3.5 1.8 1.8 0 0 0 0 3.5Z"/><path fill="#323232" fill-rule="evenodd" d="M677.2 258.3a1.3 1.3 0 1 0 0 2.6 1.3 1.3 0 0 0 0-2.6Zm-2.2 1.3a2.2 2.2 0 1 1 4.4 0 2.2 2.2 0 0 1-4.4 0Z" clip-rule="evenodd"/><path fill="#fff" d="M683 264a1.4 1.4 0 1 0 0-2.8 1.4 1.4 0 0 0 0 2.8Z"/><path fill="#323232" fill-rule="evenodd" d="M683 261.6a1 1 0 1 0 0 2 1 1 0 0 0 0-2Zm-1.8 1a1.9 1.9 0 1 1 3.7 0 1.9 1.9 0 0 1-3.7 0ZM681.5 258l-2.6 1-.3-.7 2.6-1 .3.8ZM687.2 262.4l-3.3-3.6.7-.6 3.3 3.5-.7.7ZM684 267.4l3.4-3 .6.6-3.4 3.1-.6-.7ZM681.6 267.8l-3.8-6.5.8-.5 3.7 6.6-.7.4ZM681 268.8l-2.4-1.2.3-.8 2.6 1.2-.4.8Z" clip-rule="evenodd"/><path fill="#323232" fill-rule="evenodd" d="m682.5 259-4.3 6-.7-.5 4.2-6 .8.4Z" clip-rule="evenodd"/><path fill="#323232" fill-rule="evenodd" d="m681.6 262.3-3-1.7.4-.7 3 1.6-.4.8ZM687 263.4l-2.6-.2v-1l2.7.3v.9ZM682.6 267.2V264h.9v3.2h-1Z" clip-rule="evenodd"/><path fill="#323232" d="M701.2 256.2h3.6l3.8 9.3h.2l3.8-9.3h3.6V270h-2.9v-9l-3.6 9h-2l-3.6-9v9h-2.9v-13.8Zm16.6 13.8v-13.8h3v11.4h5.9v2.4h-8.9Zm13.7-13.8h3.6l3.8 9.3h.2l3.8-9.3h3.6V270h-2.9v-9l-3.7 9H738l-3.6-9v9h-3v-13.8Zm21.2 14c-1 0-2-.2-2.7-.7-.7-.4-1.3-1-1.7-1.8a6 6 0 0 1-.7-2.8c0-1.1.2-2 .7-2.8.4-.9 1-1.5 1.7-2 .8-.4 1.7-.6 2.7-.6 1 0 2 .2 2.8.7.7.4 1.3 1 1.7 1.9.4.8.6 1.7.6 2.8 0 1-.2 2-.6 2.8-.4.8-1 1.4-1.7 1.8-.8.5-1.7.7-2.8.7Zm0-2.2c.5 0 1-.2 1.2-.4.4-.3.6-.7.8-1.1l.2-1.7c0-.6 0-1.1-.2-1.6-.2-.4-.4-.8-.8-1-.3-.4-.7-.5-1.1-.5-.5 0-1 .1-1.3.4l-.7 1.1a5 5 0 0 0-.2 1.6c0 .6 0 1.2.2 1.7.2.4.4.8.7 1 .4.3.8.5 1.3.5Zm10 2.2a4 4 0 0 1-3.6-2.4 7 7 0 0 1-.5-3c0-1.2.2-2.1.5-3 .4-.7 1-1.3 1.6-1.7a4 4 0 0 1 3.5-.3l1 .7.5.9h.1v-5.2h2.9V270h-2.9v-1.7l-.7.9c-.2.3-.5.5-1 .7-.3.2-.8.3-1.3.3Zm1-2.3c.4 0 .8-.1 1.2-.4l.7-1c.2-.5.3-1 .3-1.7 0-.6-.1-1.1-.3-1.6-.2-.4-.4-.8-.7-1-.4-.3-.8-.4-1.2-.4-.5 0-.9.1-1.2.4-.3.2-.6.6-.8 1l-.2 1.6c0 .6 0 1.2.2 1.6.2.5.5.8.8 1.1.3.3.7.4 1.2.4Zm11.3 2.3c-1 0-2-.2-2.8-.6-.7-.5-1.3-1.1-1.7-1.9-.4-.8-.7-1.7-.7-2.8 0-1.1.3-2 .7-2.8.4-.8 1-1.5 1.7-2a5 5 0 0 1 2.7-.6c.7 0 1.3.1 1.9.3a4.2 4.2 0 0 1 2.6 2.7c.2.6.3 1.4.3 2.3v.8H771v-1.8h6c0-.4 0-.8-.2-1.1a2 2 0 0 0-.8-.8c-.3-.2-.7-.3-1-.3a2.2 2.2 0 0 0-2 1.2c-.2.3-.3.7-.3 1v1.8c0 .5 0 1 .3 1.3.2.4.4.7.8.9a2.7 2.7 0 0 0 2.1.2l.7-.5.4-.6 2.7.1c-.1.7-.4 1.2-.8 1.7-.5.5-1 .8-1.6 1.1a6 6 0 0 1-2.3.4Zm8.7-14V270H781v-13.8h2.8Z"/><rect width="135" height="40" x="836" y="243" fill="#fff" rx="20"/><g filter="url(#k)"><circle cx="856" cy="263" r="12" fill="#F6EC73"/></g><path fill="#fff" d="M857 259a1.8 1.8 0 1 0 0-3.5 1.8 1.8 0 0 0 0 3.5Z"/><path fill="#323232" fill-rule="evenodd" d="M857 255.9a1.3 1.3 0 1 0 0 2.6 1.3 1.3 0 0 0 0-2.6Zm-2.2 1.3a2.2 2.2 0 1 1 4.4 0 2.2 2.2 0 0 1-4.4 0Z" clip-rule="evenodd"/><path fill="#fff" d="M862.8 265a1.8 1.8 0 1 0 0-3.5 1.8 1.8 0 0 0 0 3.5Z"/><path fill="#323232" fill-rule="evenodd" d="M862.8 262a1.3 1.3 0 1 0 0 2.6 1.3 1.3 0 0 0 0-2.6Zm-2.2 1.3a2.2 2.2 0 1 1 4.4 0 2.2 2.2 0 0 1-4.4 0Z" clip-rule="evenodd"/><path fill="#fff" d="M857 270.8a1.8 1.8 0 1 0 0-3.6 1.8 1.8 0 0 0 0 3.6Z"/><path fill="#323232" fill-rule="evenodd" d="M857 267.7a1.3 1.3 0 1 0 0 2.6 1.3 1.3 0 0 0 0-2.6Zm-2.2 1.3a2.2 2.2 0 1 1 4.4 0 2.2 2.2 0 0 1-4.4 0Z" clip-rule="evenodd"/><path fill="#fff" d="M851.2 268.2a1.8 1.8 0 1 0 0-3.5 1.8 1.8 0 0 0 0 3.5Z"/><path fill="#323232" fill-rule="evenodd" d="M851.2 265.1a1.3 1.3 0 1 0 0 2.6 1.3 1.3 0 0 0 0-2.6Zm-2.2 1.3a2.2 2.2 0 1 1 4.4 0 2.2 2.2 0 0 1-4.4 0Z" clip-rule="evenodd"/><path fill="#fff" d="M851.2 261.3a1.8 1.8 0 1 0 0-3.5 1.8 1.8 0 0 0 0 3.5Z"/><path fill="#323232" fill-rule="evenodd" d="M851.2 258.3a1.3 1.3 0 1 0 0 2.6 1.3 1.3 0 0 0 0-2.6Zm-2.2 1.3a2.2 2.2 0 1 1 4.4 0 2.2 2.2 0 0 1-4.4 0Z" clip-rule="evenodd"/><path fill="#fff" d="M857 264a1.4 1.4 0 1 0 0-2.8 1.4 1.4 0 0 0 0 2.8Z"/><path fill="#323232" fill-rule="evenodd" d="M857 261.6a1 1 0 1 0 0 2 1 1 0 0 0 0-2Zm-1.8 1a1.9 1.9 0 1 1 3.7 0 1.9 1.9 0 0 1-3.7 0ZM855.5 258l-2.6 1-.3-.7 2.6-1 .3.8ZM861.2 262.4l-3.3-3.6.7-.6 3.3 3.5-.7.7ZM858 267.4l3.4-3 .6.6-3.4 3.1-.6-.7ZM855.6 267.8l-3.8-6.5.8-.5 3.7 6.6-.7.4ZM855 268.8l-2.4-1.2.3-.8 2.6 1.2-.4.8Z" clip-rule="evenodd"/><path fill="#323232" fill-rule="evenodd" d="m856.5 259-4.3 6-.7-.5 4.2-6 .8.4Z" clip-rule="evenodd"/><path fill="#323232" fill-rule="evenodd" d="m855.6 262.3-3-1.7.4-.7 3 1.6-.4.8ZM861 263.4l-2.6-.2v-1l2.7.3v.9ZM856.6 267.2V264h.9v3.2h-1Z" clip-rule="evenodd"/><path fill="#323232" d="M875.2 256.2h3.6l3.8 9.3h.2l3.8-9.3h3.6V270h-2.9v-9l-3.6 9h-2l-3.6-9v9h-2.9v-13.8Zm16.6 13.8v-13.8h3v11.4h5.9v2.4h-8.9Zm13.7-13.8h3.6l3.8 9.3h.2l3.8-9.3h3.6V270h-2.9v-9l-3.7 9H912l-3.6-9v9h-3v-13.8Zm21.2 14c-1 0-2-.2-2.7-.7-.7-.4-1.3-1-1.7-1.8a6 6 0 0 1-.7-2.8c0-1.1.2-2 .7-2.8.4-.9 1-1.5 1.7-2 .8-.4 1.7-.6 2.7-.6 1 0 2 .2 2.8.7.7.4 1.3 1 1.7 1.9.4.8.6 1.7.6 2.8 0 1-.2 2-.6 2.8-.4.8-1 1.4-1.7 1.8-.8.5-1.7.7-2.8.7Zm0-2.2c.5 0 1-.2 1.2-.4.4-.3.6-.7.8-1.1l.2-1.7c0-.6 0-1.1-.2-1.6-.2-.4-.4-.8-.8-1-.3-.4-.7-.5-1.1-.5-.5 0-1 .1-1.3.4l-.7 1.1a5 5 0 0 0-.2 1.6c0 .6 0 1.2.2 1.7.2.4.4.8.7 1 .4.3.8.5 1.3.5Zm10 2.2a4 4 0 0 1-3.6-2.4 7 7 0 0 1-.5-3c0-1.2.2-2.1.5-3 .4-.7 1-1.3 1.6-1.7a4 4 0 0 1 3.5-.3l1 .7.5.9h.1v-5.2h2.9V270h-2.9v-1.7l-.7.9c-.2.3-.5.5-1 .7-.3.2-.8.3-1.3.3Zm1-2.3c.4 0 .8-.1 1.2-.4l.7-1c.2-.5.3-1 .3-1.7 0-.6-.1-1.1-.3-1.6-.2-.4-.4-.8-.7-1-.4-.3-.8-.4-1.2-.4-.5 0-.9.1-1.2.4-.3.2-.6.6-.8 1l-.2 1.6c0 .6 0 1.2.2 1.6.2.5.5.8.8 1.1.3.3.7.4 1.2.4Zm11.3 2.3c-1 0-2-.2-2.8-.6-.7-.5-1.3-1.1-1.7-1.9-.4-.8-.7-1.7-.7-2.8 0-1.1.3-2 .7-2.8.4-.8 1-1.5 1.7-2a5 5 0 0 1 2.7-.6c.7 0 1.3.1 1.9.3a4.2 4.2 0 0 1 2.6 2.7c.2.6.3 1.4.3 2.3v.8H945v-1.8h6c0-.4 0-.8-.2-1.1a2 2 0 0 0-.8-.8c-.3-.2-.7-.3-1-.3a2.2 2.2 0 0 0-2 1.2c-.2.3-.3.7-.3 1v1.8c0 .5 0 1 .3 1.3.2.4.4.7.8.9a2.7 2.7 0 0 0 2.1.2l.7-.5.4-.6 2.7.1c-.1.7-.4 1.2-.8 1.7-.5.5-1 .8-1.6 1.1a6 6 0 0 1-2.3.4Zm8.7-14V270H955v-13.8h2.8Z"/><rect width="135" height="40" x="1012" y="243" fill="#fff" rx="20"/><g filter="url(#l)"><circle cx="1032" cy="263" r="12" fill="#80E6BB"/></g><path fill="#fff" d="M1033 259a1.8 1.8 0 1 0 0-3.6 1.8 1.8 0 0 0 0 3.6Z"/><path fill="#323232" fill-rule="evenodd" d="M1033 255.9a1.3 1.3 0 1 0 0 2.6 1.3 1.3 0 0 0 0-2.6Zm-2.2 1.3a2.2 2.2 0 1 1 4.4 0 2.2 2.2 0 0 1-4.4 0Z" clip-rule="evenodd"/><path fill="#fff" d="M1038.8 265c1 0 1.8-.8 1.8-1.7a1.8 1.8 0 0 0-3.6 0c0 1 .8 1.7 1.8 1.7Z"/><path fill="#323232" fill-rule="evenodd" d="M1038.8 262c-.7 0-1.3.6-1.3 1.3 0 .7.6 1.3 1.3 1.3.7 0 1.3-.6 1.3-1.3 0-.7-.6-1.3-1.3-1.3Zm-2.2 1.3a2.2 2.2 0 1 1 4.4 0 2.2 2.2 0 0 1-4.4 0Z" clip-rule="evenodd"/><path fill="#fff" d="M1033 270.8a1.8 1.8 0 1 0 0-3.6 1.8 1.8 0 0 0 0 3.6Z"/><path fill="#323232" fill-rule="evenodd" d="M1033 267.7a1.3 1.3 0 1 0 0 2.6 1.3 1.3 0 0 0 0-2.6Zm-2.2 1.3a2.2 2.2 0 1 1 4.4 0 2.2 2.2 0 0 1-4.4 0Z" clip-rule="evenodd"/><path fill="#fff" d="M1027.2 268.2c1 0 1.8-.8 1.8-1.8a1.8 1.8 0 0 0-3.5 0c0 1 .7 1.8 1.7 1.8Z"/><path fill="#323232" fill-rule="evenodd" d="M1027.2 265.1c-.7 0-1.3.6-1.3 1.3a1.3 1.3 0 0 0 2.6 0c0-.7-.6-1.3-1.3-1.3Zm-2.2 1.3a2.2 2.2 0 1 1 4.4 0 2.2 2.2 0 0 1-4.4 0Z" clip-rule="evenodd"/><path fill="#fff" d="M1027.2 261.3c1 0 1.8-.8 1.8-1.7a1.8 1.8 0 0 0-3.5 0c0 1 .7 1.7 1.7 1.7Z"/><path fill="#323232" fill-rule="evenodd" d="M1027.2 258.3c-.7 0-1.3.5-1.3 1.3a1.3 1.3 0 0 0 2.6 0c0-.8-.6-1.3-1.3-1.3Zm-2.2 1.3a2.2 2.2 0 1 1 4.4 0 2.2 2.2 0 0 1-4.4 0Z" clip-rule="evenodd"/><path fill="#fff" d="M1033 264c.8 0 1.5-.6 1.5-1.4a1.4 1.4 0 1 0-2.9 0c0 .8.7 1.4 1.4 1.4Z"/><path fill="#323232" fill-rule="evenodd" d="M1033 261.6a1 1 0 0 0 0 2 1 1 0 1 0 0-2Zm-1.8 1a1.9 1.9 0 1 1 3.7 0 1.9 1.9 0 1 1-3.7 0ZM1031.5 258l-2.6 1-.4-.7 2.7-1 .3.8ZM1037.2 262.4l-3.3-3.6.7-.6 3.3 3.5-.7.7ZM1034 267.4l3.4-3 .6.6-3.4 3.1-.6-.7ZM1031.6 267.8l-3.8-6.5.8-.5 3.7 6.6-.7.4ZM1031 268.8l-2.4-1.2.4-.8 2.5 1.2-.4.8Z" clip-rule="evenodd"/><path fill="#323232" fill-rule="evenodd" d="m1032.5 259-4.3 6-.7-.5 4.2-6 .8.4Z" clip-rule="evenodd"/><path fill="#323232" fill-rule="evenodd" d="m1031.6 262.3-3-1.7.4-.7 3 1.6-.4.8ZM1037 263.4l-2.6-.2v-1l2.7.3v.9ZM1032.6 267.2V264h.9v3.2h-1Z" clip-rule="evenodd"/><path fill="#323232" d="M1051.2 256.2h3.6l3.8 9.3h.2l3.8-9.3h3.6V270h-2.9v-9l-3.6 9h-2l-3.5-9h-.2v9h-2.8v-13.8Zm16.6 13.8v-13.8h3v11.4h5.9v2.4h-8.9Zm13.7-13.8h3.6l3.8 9.3h.1l3.9-9.3h3.6V270h-2.9v-9l-3.7 9h-1.9l-3.6-9v9h-3v-13.8Zm21.2 14c-1 0-2-.2-2.7-.7-.7-.4-1.3-1-1.7-1.8a6 6 0 0 1-.7-2.8c0-1.1.2-2 .7-2.8.4-.9 1-1.5 1.7-2 .8-.4 1.7-.6 2.7-.6 1 0 2 .2 2.8.7.7.4 1.3 1 1.7 1.9.4.8.6 1.7.6 2.8 0 1-.2 2-.6 2.8-.4.8-1 1.4-1.8 1.8-.7.5-1.6.7-2.7.7Zm0-2.2c.5 0 1-.2 1.3-.4l.7-1.1.2-1.7a5 5 0 0 0-.2-1.6c-.2-.4-.4-.8-.8-1-.3-.4-.7-.5-1.2-.5-.4 0-.8.1-1.2.4l-.7 1.1a5 5 0 0 0-.2 1.6c0 .6 0 1.2.2 1.7.2.4.4.8.7 1 .4.3.8.5 1.3.5Zm10 2.2a4 4 0 0 1-3.6-2.4 7 7 0 0 1-.5-3c0-1.2.2-2.1.5-3 .4-.7 1-1.3 1.6-1.7a4 4 0 0 1 3.5-.3l1 .7.5.9h.1v-5.2h2.9V270h-2.9v-1.7l-.7.9c-.2.3-.5.5-1 .7-.3.2-.8.3-1.3.3Zm1-2.3c.4 0 .8-.1 1.1-.4.4-.3.6-.6.8-1 .2-.5.3-1 .3-1.7 0-.6-.1-1.1-.3-1.6-.2-.4-.4-.8-.7-1-.4-.3-.8-.4-1.2-.4-.5 0-.9.1-1.2.4-.3.2-.6.6-.8 1l-.2 1.6c0 .6 0 1.2.3 1.6.1.5.4.8.7 1.1.3.3.7.4 1.2.4Zm11.3 2.3c-1 0-2-.2-2.8-.6-.7-.5-1.3-1.1-1.7-1.9-.4-.8-.7-1.7-.7-2.8 0-1.1.3-2 .7-2.8.4-.8 1-1.5 1.7-2a5 5 0 0 1 2.7-.6c.7 0 1.3.1 1.9.3a4.3 4.3 0 0 1 2.6 2.7c.2.6.3 1.4.3 2.3v.8h-8.7v-1.8h6c0-.4 0-.8-.2-1.1a2 2 0 0 0-.8-.8c-.3-.2-.7-.3-1-.3-.5 0-.9.1-1.2.4-.4.1-.6.4-.8.8-.2.3-.3.7-.3 1v1.8c0 .5 0 1 .3 1.3.2.4.4.7.8.9a2.8 2.8 0 0 0 2.1.2l.7-.5.4-.6 2.7.1c-.2.7-.4 1.2-.8 1.7-.5.5-1 .8-1.7 1.1a6 6 0 0 1-2.2.4Zm8.7-14V270h-2.8v-13.8h2.8Z"/><rect width="113" height="24" x="1034" y="36" fill="#1F1F1F" rx="12"/><path fill="#fff" d="M1050.4 52.5h-3.2V42.3h3.3c1 0 1.8.2 2.5.6a4 4 0 0 1 1.7 1.8c.3.7.5 1.6.5 2.7 0 1-.2 2-.5 2.7a4 4 0 0 1-1.7 1.8c-.7.4-1.6.6-2.6.6Zm-2-1h1.9a4 4 0 0 0 2-.6 3 3 0 0 0 1.3-1.4c.3-.6.4-1.3.4-2.1s-.1-1.5-.4-2.1a3 3 0 0 0-1.2-1.4c-.5-.3-1.2-.5-2-.5h-2v8Zm11.7 1.2c-.8 0-1.4-.2-2-.5-.5-.4-.9-.8-1.2-1.4-.3-.6-.4-1.3-.4-2 0-.8.1-1.5.4-2.1.3-.6.7-1 1.2-1.4.6-.4 1.2-.5 1.8-.5.4 0 .8 0 1.2.2a3 3 0 0 1 1.8 1.8c.2.5.3 1 .3 1.8v.5h-5.9v-1h4.7c0-.5 0-.9-.2-1.2a2 2 0 0 0-.8-.8 2 2 0 0 0-1-.3 2 2 0 0 0-1.3.4c-.3.2-.6.5-.8.9l-.2 1.1v.7c0 .6 0 1 .3 1.5.2.4.5.7.8.9.4.2.8.3 1.3.3l.8-.1c.3-.1.5-.2.6-.4l.5-.7 1.1.3c-.1.4-.3.8-.6 1a3 3 0 0 1-1 .7l-1.4.3Zm7.7 0c-.7 0-1.3-.2-1.8-.5-.5-.4-1-.9-1.2-1.4-.3-.6-.4-1.3-.4-2 0-.9.1-1.5.4-2.1.3-.6.7-1 1.2-1.4.5-.4 1.1-.5 1.8-.5.5 0 1 0 1.5.3.4.2.7.4 1 .8.3.4.5.8.5 1.3h-1.1a1.8 1.8 0 0 0-1.9-1.4 2 2 0 0 0-1.2.4c-.3.2-.6.5-.8 1-.2.4-.3 1-.3 1.5 0 .6.1 1 .3 1.5.2.5.5.8.8 1a2.1 2.1 0 0 0 2 .2c.3 0 .5-.2.7-.4l.4-.7h1.1c0 .4-.2.8-.5 1.2-.2.3-.6.6-1 .8-.4.3-1 .4-1.5.4Zm7.7 0c-.8 0-1.4-.2-2-.5-.5-.4-.9-.8-1.2-1.4-.3-.6-.4-1.3-.4-2 0-.8.1-1.5.4-2.1.3-.6.7-1 1.2-1.4.5-.4 1.2-.5 1.8-.5.5 0 .8 0 1.2.2.4.1.8.3 1 .6.4.3.7.7.8 1.2.2.5.3 1 .3 1.8v.5h-5.9v-1h4.7c0-.5 0-.9-.2-1.2a2 2 0 0 0-.8-.8 2 2 0 0 0-1-.3 2.1 2.1 0 0 0-2 1.3c-.2.3-.3.7-.3 1.1v.7c0 .6 0 1 .3 1.5.2.4.5.7.8.9.4.2.8.3 1.3.3l.8-.1a1.8 1.8 0 0 0 1-1l1.2.2c-.1.4-.3.8-.6 1-.3.3-.6.6-1 .7l-1.4.3Zm5.8-4.8v4.6h-1.2v-7.6h1.2V46l.9-1c.3-.2.8-.3 1.4-.3.5 0 1 0 1.4.3.3.2.6.5.9 1 .2.4.3.9.3 1.5v4.9h-1.2v-4.8c0-.6-.2-1-.5-1.4-.3-.3-.7-.5-1.2-.5a2 2 0 0 0-1 .3c-.3.1-.6.4-.7.7-.2.3-.3.7-.3 1.1Zm10-3v1h-3.9v-1h4Zm-2.7-1.9h1.1v7.3c0 .3 0 .6.2.8l.4.3h1l.2 1a2.4 2.4 0 0 1-.9.2c-.3 0-.6 0-1-.2a1.8 1.8 0 0 1-1-1.8V43Zm4.3 9.5v-7.6h1V46h.2c.1-.4.4-.7.7-.9.4-.2.8-.4 1.3-.4a12.7 12.7 0 0 1 .6 0V46a3.2 3.2 0 0 0-.8-.1 2 2 0 0 0-1 .2l-.6.6c-.2.3-.3.6-.3 1v4.8h-1.2Zm7.1.2c-.5 0-.9-.1-1.3-.3-.4-.2-.7-.4-1-.8-.2-.3-.3-.8-.3-1.3 0-.4.1-.8.3-1 .1-.3.4-.5.7-.7l1-.3a12.5 12.5 0 0 1 2.1-.3l.7-.2.1-.4c0-.5 0-1-.3-1.2-.3-.3-.7-.4-1.3-.4-.5 0-1 .1-1.3.4l-.7.8-1-.4a2.7 2.7 0 0 1 1.8-1.7 4.6 4.6 0 0 1 2 0c.4 0 .7.1 1 .3l.7.8c.2.4.3.9.3 1.5v5h-1.2v-1l-.4.5-.8.5-1 .2Zm.2-1c.5 0 .9-.2 1.2-.3a1.8 1.8 0 0 0 1-1.7v-1l-.4.1a36.2 36.2 0 0 1-2.5.5c-.3 0-.5.2-.7.4a1 1 0 0 0-.2.7c0 .4.1.7.5 1l1.1.2Zm6.4-9.4v10.2h-1.2V42.3h1.2Zm1.8 10.2v-7.6h1.2v7.6h-1.2Zm.6-9-.6-.1a.8.8 0 0 1-.2-.6c0-.2 0-.4.2-.6l.6-.2c.3 0 .5 0 .6.2l.3.6-.3.6-.6.2Zm2.3 9v-.9l4.3-5.6h-4.2v-1.1h5.7v.9l-4.2 5.5v.1h4.3v1.1h-6Zm10.5.2c-.8 0-1.4-.2-2-.5-.5-.4-.9-.8-1.2-1.4-.3-.6-.4-1.3-.4-2 0-.8.1-1.5.4-2.1.3-.6.7-1 1.2-1.4.5-.4 1.1-.5 1.8-.5.4 0 .8 0 1.2.2a3 3 0 0 1 1.8 1.8c.2.5.3 1 .3 1.8v.5h-5.9v-1h4.7c0-.5 0-.9-.2-1.2a2 2 0 0 0-.8-.8 2 2 0 0 0-1-.3 2 2 0 0 0-1.3.4c-.3.2-.6.5-.8.9l-.2 1.1v.7c0 .6 0 1 .3 1.5.2.4.4.7.8.9.4.2.8.3 1.3.3l.8-.1c.2-.1.5-.2.6-.4l.5-.7 1 .3c0 .4-.2.8-.5 1a3 3 0 0 1-1 .7l-1.5.3Zm7.5 0a3 3 0 0 1-2.8-1.9c-.3-.6-.4-1.3-.4-2.1s0-1.5.4-2c.2-.7.6-1.1 1.1-1.5a3 3 0 0 1 1.7-.4c.5 0 1 0 1.2.2l.7.6.3.5h.1v-3.8h1.2v10.2h-1.1v-1.2h-.2l-.3.6-.7.5c-.3.2-.7.3-1.2.3Zm.2-1c.4 0 .8-.2 1.2-.5.3-.2.5-.6.7-1a4.3 4.3 0 0 0 0-3c-.2-.4-.4-.8-.7-1a2 2 0 0 0-1.2-.4 2 2 0 0 0-1.3.4c-.3.3-.6.6-.7 1l-.3 1.5.3 1.5c.2.4.4.8.7 1 .4.3.8.4 1.3.4Z"/><defs><filter id="a" width="32" height="32" x="41" y="303" color-interpolation-filters="sRGB" filterUnits="userSpaceOnUse"><feFlood flood-opacity="0" result="BackgroundImageFix"/><feColorMatrix in="SourceAlpha" result="hardAlpha" values="0 0 0 0 0 0 0 0 0 0 0 0 0 0 0 0 0 0 127 0"/><feOffset dy="2"/><feGaussianBlur stdDeviation="2"/><feComposite in2="hardAlpha" operator="out"/><feColorMatrix values="0 0 0 0 0 0 0 0 0 0 0 0 0 0 0 0 0 0 0.08 0"/><feBlend in2="BackgroundImageFix" result="effect1_dropShadow_652_1492"/><feBlend in="SourceGraphic" in2="effect1_dropShadow_652_1492" result="shape"/></filter><filter id="b" width="32" height="32" x="216" y="303" color-interpolation-filters="sRGB" filterUnits="userSpaceOnUse"><feFlood flood-opacity="0" result="BackgroundImageFix"/><feColorMatrix in="SourceAlpha" result="hardAlpha" values="0 0 0 0 0 0 0 0 0 0 0 0 0 0 0 0 0 0 127 0"/><feOffset dy="2"/><feGaussianBlur stdDeviation="2"/><feComposite in2="hardAlpha" operator="out"/><feColorMatrix values="0 0 0 0 0 0 0 0 0 0 0 0 0 0 0 0 0 0 0.08 0"/><feBlend in2="BackgroundImageFix" result="effect1_dropShadow_652_1492"/><feBlend in="SourceGraphic" in2="effect1_dropShadow_652_1492" result="shape"/></filter><filter id="c" width="32" height="32" x="391" y="303" color-interpolation-filters="sRGB" filterUnits="userSpaceOnUse"><feFlood flood-opacity="0" result="BackgroundImageFix"/><feColorMatrix in="SourceAlpha" result="hardAlpha" values="0 0 0 0 0 0 0 0 0 0 0 0 0 0 0 0 0 0 127 0"/><feOffset dy="2"/><feGaussianBlur stdDeviation="2"/><feComposite in2="hardAlpha" operator="out"/><feColorMatrix values="0 0 0 0 0 0 0 0 0 0 0 0 0 0 0 0 0 0 0.08 0"/><feBlend in2="BackgroundImageFix" result="effect1_dropShadow_652_1492"/><feBlend in="SourceGraphic" in2="effect1_dropShadow_652_1492" result="shape"/></filter><filter id="d" width="32" height="32" x="154" y="81" color-interpolation-filters="sRGB" filterUnits="userSpaceOnUse"><feFlood flood-opacity="0" result="BackgroundImageFix"/><feColorMatrix in="SourceAlpha" result="hardAlpha" values="0 0 0 0 0 0 0 0 0 0 0 0 0 0 0 0 0 0 127 0"/><feOffset dy="2"/><feGaussianBlur stdDeviation="2"/><feComposite in2="hardAlpha" operator="out"/><feColorMatrix values="0 0 0 0 0 0 0 0 0 0 0 0 0 0 0 0 0 0 0.08 0"/><feBlend in2="BackgroundImageFix" result="effect1_dropShadow_652_1492"/><feBlend in="SourceGraphic" in2="effect1_dropShadow_652_1492" result="shape"/></filter><filter id="e" width="32" height="32" x="181" y="148" color-interpolation-filters="sRGB" filterUnits="userSpaceOnUse"><feFlood flood-opacity="0" result="BackgroundImageFix"/><feColorMatrix in="SourceAlpha" result="hardAlpha" values="0 0 0 0 0 0 0 0 0 0 0 0 0 0 0 0 0 0 127 0"/><feOffset dy="2"/><feGaussianBlur stdDeviation="2"/><feComposite in2="hardAlpha" operator="out"/><feColorMatrix values="0 0 0 0 0 0 0 0 0 0 0 0 0 0 0 0 0 0 0.08 0"/><feBlend in2="BackgroundImageFix" result="effect1_dropShadow_652_1492"/><feBlend in="SourceGraphic" in2="effect1_dropShadow_652_1492" result="shape"/></filter><filter id="f" width="32" height="32" x="666" y="303" color-interpolation-filters="sRGB" filterUnits="userSpaceOnUse"><feFlood flood-opacity="0" result="BackgroundImageFix"/><feColorMatrix in="SourceAlpha" result="hardAlpha" values="0 0 0 0 0 0 0 0 0 0 0 0 0 0 0 0 0 0 127 0"/><feOffset dy="2"/><feGaussianBlur stdDeviation="2"/><feComposite in2="hardAlpha" operator="out"/><feColorMatrix values="0 0 0 0 0 0 0 0 0 0 0 0 0 0 0 0 0 0 0.08 0"/><feBlend in2="BackgroundImageFix" result="effect1_dropShadow_652_1492"/><feBlend in="SourceGraphic" in2="effect1_dropShadow_652_1492" result="shape"/></filter><filter id="g" width="32" height="32" x="841" y="303" color-interpolation-filters="sRGB" filterUnits="userSpaceOnUse"><feFlood flood-opacity="0" result="BackgroundImageFix"/><feColorMatrix in="SourceAlpha" result="hardAlpha" values="0 0 0 0 0 0 0 0 0 0 0 0 0 0 0 0 0 0 127 0"/><feOffset dy="2"/><feGaussianBlur stdDeviation="2"/><feComposite in2="hardAlpha" operator="out"/><feColorMatrix values="0 0 0 0 0 0 0 0 0 0 0 0 0 0 0 0 0 0 0.08 0"/><feBlend in2="BackgroundImageFix" result="effect1_dropShadow_652_1492"/><feBlend in="SourceGraphic" in2="effect1_dropShadow_652_1492" result="shape"/></filter><filter id="h" width="32" height="32" x="1016" y="303" color-interpolation-filters="sRGB" filterUnits="userSpaceOnUse"><feFlood flood-opacity="0" result="BackgroundImageFix"/><feColorMatrix in="SourceAlpha" result="hardAlpha" values="0 0 0 0 0 0 0 0 0 0 0 0 0 0 0 0 0 0 127 0"/><feOffset dy="2"/><feGaussianBlur stdDeviation="2"/><feComposite in2="hardAlpha" operator="out"/><feColorMatrix values="0 0 0 0 0 0 0 0 0 0 0 0 0 0 0 0 0 0 0.08 0"/><feBlend in2="BackgroundImageFix" result="effect1_dropShadow_652_1492"/><feBlend in="SourceGraphic" in2="effect1_dropShadow_652_1492" result="shape"/></filter><filter id="i" width="32" height="32" x="779" y="81" color-interpolation-filters="sRGB" filterUnits="userSpaceOnUse"><feFlood flood-opacity="0" result="BackgroundImageFix"/><feColorMatrix in="SourceAlpha" result="hardAlpha" values="0 0 0 0 0 0 0 0 0 0 0 0 0 0 0 0 0 0 127 0"/><feOffset dy="2"/><feGaussianBlur stdDeviation="2"/><feComposite in2="hardAlpha" operator="out"/><feColorMatrix values="0 0 0 0 0 0 0 0 0 0 0 0 0 0 0 0 0 0 0.08 0"/><feBlend in2="BackgroundImageFix" result="effect1_dropShadow_652_1492"/><feBlend in="SourceGraphic" in2="effect1_dropShadow_652_1492" result="shape"/></filter><filter id="j" width="32" height="32" x="666" y="249" color-interpolation-filters="sRGB" filterUnits="userSpaceOnUse"><feFlood flood-opacity="0" result="BackgroundImageFix"/><feColorMatrix in="SourceAlpha" result="hardAlpha" values="0 0 0 0 0 0 0 0 0 0 0 0 0 0 0 0 0 0 127 0"/><feOffset dy="2"/><feGaussianBlur stdDeviation="2"/><feComposite in2="hardAlpha" operator="out"/><feColorMatrix values="0 0 0 0 0 0 0 0 0 0 0 0 0 0 0 0 0 0 0.08 0"/><feBlend in2="BackgroundImageFix" result="effect1_dropShadow_652_1492"/><feBlend in="SourceGraphic" in2="effect1_dropShadow_652_1492" result="shape"/></filter><filter id="k" width="32" height="32" x="840" y="249" color-interpolation-filters="sRGB" filterUnits="userSpaceOnUse"><feFlood flood-opacity="0" result="BackgroundImageFix"/><feColorMatrix in="SourceAlpha" result="hardAlpha" values="0 0 0 0 0 0 0 0 0 0 0 0 0 0 0 0 0 0 127 0"/><feOffset dy="2"/><feGaussianBlur stdDeviation="2"/><feComposite in2="hardAlpha" operator="out"/><feColorMatrix values="0 0 0 0 0 0 0 0 0 0 0 0 0 0 0 0 0 0 0.08 0"/><feBlend in2="BackgroundImageFix" result="effect1_dropShadow_652_1492"/><feBlend in="SourceGraphic" in2="effect1_dropShadow_652_1492" result="shape"/></filter><filter id="l" width="32" height="32" x="1016" y="249" color-interpolation-filters="sRGB" filterUnits="userSpaceOnUse"><feFlood flood-opacity="0" result="BackgroundImageFix"/><feColorMatrix in="SourceAlpha" result="hardAlpha" values="0 0 0 0 0 0 0 0 0 0 0 0 0 0 0 0 0 0 127 0"/><feOffset dy="2"/><feGaussianBlur stdDeviation="2"/><feComposite in2="hardAlpha" operator="out"/><feColorMatrix values="0 0 0 0 0 0 0 0 0 0 0 0 0 0 0 0 0 0 0.08 0"/><feBlend in2="BackgroundImageFix" result="effect1_dropShadow_652_1492"/><feBlend in="SourceGraphic" in2="effect1_dropShadow_652_1492" result="shape"/></filter></defs></svg>